<svg width="136" height="41" viewBox="0 0 136 41" fill="none" xmlns="http://www.w3.org/2000/svg">
<path d="M0.264038 5.73843C0.264038 2.97701 2.50262 0.738434 5.26404 0.738434H130.264C133.025 0.738434 135.264 2.97701 135.264 5.73843V35.7384C135.264 38.4998 133.025 40.7384 130.264 40.7384H5.26404C2.50261 40.7384 0.264038 38.4998 0.264038 35.7384V5.73843Z" fill="black"/>
<path d="M29.0252 8.83508H15.576C12.7656 8.83508 10.4873 11.1307 10.4873 13.9626V27.5145C10.4873 30.3463 12.7656 32.642 15.576 32.642H29.0252C31.8356 32.642 34.1139 30.3463 34.1139 27.5145V13.9626C34.1139 11.1307 31.8356 8.83508 29.0252 8.83508Z" fill="#E14459"/>
<path d="M16.2467 10.3913C16.0685 10.3915 15.8976 10.4628 15.7718 10.5895C15.6459 10.7162 15.5753 10.8878 15.5754 11.0668C15.5756 11.2457 15.6465 11.4172 15.7726 11.5437C15.8987 11.6701 16.0697 11.7411 16.2479 11.741C16.4261 11.7409 16.597 11.6698 16.723 11.5432C16.849 11.4167 16.9198 11.2451 16.9198 11.0662V11.0648C16.9194 10.8859 16.8484 10.7145 16.7221 10.5881C16.5959 10.4618 16.4249 10.3911 16.2467 10.3913ZM28.2695 10.3913C28.0913 10.3915 27.9205 10.4628 27.7946 10.5895C27.6687 10.7162 27.5981 10.8878 27.5983 11.0668C27.5984 11.2457 27.6694 11.4173 27.7955 11.5437C27.9216 11.6701 28.0926 11.7411 28.2708 11.741C28.449 11.7409 28.6199 11.6697 28.7459 11.5432C28.8718 11.4167 28.9426 11.2451 28.9426 11.0662V11.0648C28.9423 10.8859 28.8712 10.7144 28.745 10.5881C28.6188 10.4618 28.4477 10.3911 28.2695 10.3913Z" fill="#C73148"/>
<path d="M16.2202 10.9731C15.9866 10.9857 15.9984 11.3281 15.9984 11.3281C17.2538 13.7914 19.5653 14.9997 22.2309 14.9998C24.893 14.9959 27.2275 13.7743 28.4812 11.3142C28.4812 11.3142 28.5309 10.851 28.0416 11.0115C26.7559 13.1589 24.5959 14.4293 22.2325 14.4333C19.8647 14.4339 17.7124 13.1769 16.4242 11.0254C16.341 10.9849 16.2741 10.9702 16.2202 10.9731ZM24.7164 20.5482L24.0022 22.6915L23.307 20.5498H22.6283L23.7241 23.6653H24.2524L24.9682 21.6187L25.6832 23.6653H26.2159L27.3093 20.5498H26.6476L25.9511 22.6915L25.2369 20.5482H24.7164ZM20.9229 20.549L19.5371 23.6637H20.1886L20.4561 23.0607L20.475 23.0152H21.9149L22.197 23.6637H22.8662L21.4931 20.5672L21.4808 20.549H20.9229ZM30.9588 20.5494V23.6617H31.5886V20.5494H30.9588ZM12.9021 20.5498V23.6665H13.5405V22.4007H14.9816V23.6665H15.62V20.5498H14.9816V21.8072H13.5405V20.5498H12.9021ZM18.5743 20.5506V22.3345C18.5743 22.8413 18.3205 23.1118 17.8593 23.1118C17.3955 23.1118 17.14 22.8337 17.14 22.3131V20.5526H16.5019V22.3346C16.5019 23.2114 16.9939 23.714 17.851 23.714C18.7163 23.714 19.2123 23.2018 19.2123 22.3088V20.5506H18.5743ZM27.8238 20.5517V23.6641H30.1992V23.0968H28.4532V22.325H29.6141V21.7573H28.4532V21.1195H30.1385V20.5518L27.8238 20.5517ZM21.1932 21.3377L21.6485 22.3812L21.6793 22.453H20.7141L20.7445 22.3812L21.1932 21.3377Z" fill="white"/>
<path d="M52.249 27.7549H47.7077L46.6053 30.7859H44.6096L49.0502 19.4599H50.9349L55.4761 30.7859H53.3875L52.249 27.7549ZM48.286 26.2059H51.6707L50.4598 22.9633C50.2877 22.5158 50.1233 22.0209 49.9667 21.4788C49.8204 21.959 49.6612 22.4486 49.4891 22.9478L48.286 26.2059Z" fill="white"/>
<path d="M56.2816 24.4168C56.2816 23.792 56.2609 23.1036 56.2196 22.3514H58.0268C58.0946 22.7055 58.1412 23.0632 58.1663 23.4228C58.4826 23.0442 58.8771 22.7386 59.3228 22.5269C59.7684 22.3152 60.2546 22.2025 60.748 22.1965C61.3267 22.187 61.8951 22.3505 62.3803 22.666C62.8656 22.9816 63.2456 23.4348 63.4717 23.9676C63.7891 24.6998 63.9399 25.4935 63.9132 26.2911C63.9333 27.1609 63.7568 28.024 63.3968 28.8161C63.0961 29.4736 62.605 30.0257 61.9872 30.4012C61.3517 30.769 60.6275 30.9556 59.8934 30.9408C59.3158 30.94 58.7425 30.8422 58.1972 30.6517V34.1422L56.2661 34.3074L56.2816 24.4168ZM61.3598 28.7205C61.7523 28.1922 61.9493 27.4176 61.9511 26.397C61.9511 25.4538 61.7884 24.7696 61.4631 24.3445C61.3156 24.1417 61.1211 23.9777 60.8963 23.8666C60.6714 23.7555 60.423 23.7007 60.1722 23.7068C59.8116 23.7027 59.4559 23.7916 59.1396 23.965C58.8039 24.1564 58.4985 24.3965 58.2334 24.6776V29.1956C58.4474 29.2963 58.6728 29.3709 58.9046 29.4176C59.154 29.472 59.4084 29.4997 59.6636 29.5002C59.9929 29.5194 60.3219 29.4572 60.6213 29.3189C60.9208 29.1807 61.1815 28.9707 61.3805 28.7076" fill="white"/>
<path d="M65.0853 24.4168C65.0853 23.792 65.0646 23.1036 65.0233 22.3514H66.8305C66.8984 22.7055 66.945 23.0632 66.97 23.4228C67.2863 23.0442 67.6808 22.7386 68.1265 22.5269C68.5721 22.3152 69.0583 22.2025 69.5517 22.1965C70.1304 22.187 70.6988 22.3505 71.184 22.666C71.6693 22.9816 72.0493 23.4348 72.2754 23.9676C72.5928 24.6998 72.7436 25.4935 72.7169 26.2911C72.737 27.1609 72.5605 28.024 72.2005 28.8161C71.8998 29.4736 71.4088 30.0257 70.7909 30.4012C70.1554 30.7691 69.4313 30.9557 68.6971 30.9408C68.1195 30.94 67.5462 30.8422 67.0009 30.6517V34.1422L65.0698 34.3074L65.0853 24.4168ZM70.1687 28.7205C70.5629 28.1922 70.7599 27.4176 70.7599 26.397C70.7599 25.4538 70.5973 24.7696 70.272 24.3445C70.1245 24.1417 69.93 23.9777 69.7051 23.8666C69.4803 23.7555 69.2318 23.7007 68.9811 23.7068C68.6204 23.7027 68.2648 23.7916 67.9484 23.965C67.6128 24.1564 67.3074 24.3966 67.0422 24.6776V29.1956C67.2563 29.2963 67.4816 29.3708 67.7135 29.4176C67.9628 29.472 68.2173 29.4997 68.4725 29.5002C68.7973 29.5175 69.1214 29.4555 69.4168 29.3197C69.7123 29.1839 69.9704 28.9783 70.1687 28.7205Z" fill="white"/>
<path d="M76.2694 30.2515C75.444 29.7995 74.7737 29.1095 74.346 28.2713C73.8781 27.3245 73.6477 26.278 73.6748 25.2223C73.6402 24.0926 73.9075 22.9741 74.4493 21.9822C74.937 21.1207 75.6705 20.4241 76.556 19.9814C77.486 19.5263 78.5103 19.2972 79.5456 19.3127C80.1732 19.3099 80.799 19.3818 81.4096 19.527C81.9802 19.6635 82.5342 19.8617 83.0619 20.1182L82.5611 21.6027C81.6491 21.1406 80.6451 20.8892 79.6231 20.8669C78.9012 20.8549 78.1889 21.033 77.5577 21.3833C76.9595 21.7272 76.479 22.2437 76.179 22.8652C75.832 23.6022 75.6631 24.4105 75.6859 25.2249C75.6729 25.9586 75.8018 26.688 76.0654 27.3729C76.3023 27.9785 76.7196 28.4967 77.2608 28.8574C77.8783 29.2438 78.5983 29.4345 79.3262 29.4047C79.7033 29.4048 80.0798 29.3737 80.4518 29.3117C80.8115 29.2535 81.165 29.1618 81.5077 29.0381V26.7481H78.8873V25.2481H83.382V30.0114C82.7299 30.3153 82.047 30.5481 81.3451 30.7059C80.6489 30.8657 79.9371 30.9471 79.2229 30.9486C78.1954 30.9744 77.1785 30.7361 76.2694 30.2566" fill="white"/>
<path d="M90.2339 30.7859C90.1616 30.4172 90.1176 30.0434 90.1022 29.668C89.7787 30.0433 89.3838 30.3505 88.9404 30.5716C88.4407 30.8246 87.8869 30.9522 87.3269 30.9434C86.8694 30.9488 86.4167 30.8509 86.0024 30.6568C85.6078 30.4703 85.2772 30.1712 85.0524 29.7971C84.8071 29.3716 84.6855 28.8861 84.7012 28.3952C84.6873 28.023 84.7597 27.6526 84.9129 27.313C85.0661 26.9735 85.2959 26.6741 85.5842 26.4383C86.1728 25.9512 87.1547 25.7076 88.5299 25.7076C89.0422 25.7072 89.5538 25.7434 90.0609 25.8161V25.6508C90.0609 24.9056 89.9017 24.3806 89.5833 24.076C89.205 23.7497 88.7134 23.5855 88.215 23.619C87.7685 23.6238 87.3245 23.6845 86.8931 23.7997C86.4693 23.9036 86.0561 24.0471 85.6591 24.2283L85.3544 22.8213C85.793 22.6342 86.2487 22.4898 86.715 22.3901C87.2994 22.2573 87.8971 22.1915 88.4964 22.1939C89.1331 22.1768 89.7665 22.2902 90.3578 22.5269C90.8767 22.7569 91.2994 23.1604 91.5531 23.6681C91.8697 24.3483 92.0176 25.0949 91.9843 25.8445V29.2007C91.9843 29.5449 92.0049 30.0742 92.0462 30.7885L90.2339 30.7859ZM89.0773 29.2214C89.4494 29.0495 89.7837 28.8056 90.0609 28.5036V26.9391C89.6324 26.8883 89.2015 26.8598 88.77 26.8539C87.9731 26.8539 87.4224 26.983 87.1177 27.2412C86.9683 27.3674 86.8495 27.526 86.7703 27.7049C86.6912 27.8838 86.6537 28.0784 86.6608 28.2739C86.6468 28.4432 86.6692 28.6135 86.7267 28.7734C86.7841 28.9333 86.8752 29.079 86.9938 29.2007C87.2455 29.4129 87.5687 29.521 87.8974 29.5028C88.3075 29.4968 88.7109 29.3979 89.0773 29.2136" fill="white"/>
<path d="M93.4687 28.7618V18.7963L95.3921 18.6414V28.4184C95.3646 28.6899 95.4292 28.9627 95.5754 29.193C95.6495 29.2718 95.7405 29.3328 95.8416 29.3713C95.9426 29.4097 96.0512 29.4247 96.1589 29.415C96.3338 29.4077 96.5072 29.3791 96.6752 29.3298L96.9024 30.7136C96.6864 30.7956 96.4622 30.8545 96.2338 30.8891C95.9874 30.9322 95.7378 30.9547 95.4877 30.9563C94.1486 30.9563 93.4791 30.2291 93.4791 28.7747" fill="white"/>
<path d="M98.2708 28.7618V18.7963L100.194 18.6414V28.4184C100.167 28.6899 100.231 28.9627 100.378 29.193C100.452 29.2718 100.543 29.3328 100.644 29.3713C100.745 29.4097 100.853 29.4247 100.961 29.415C101.136 29.4077 101.309 29.3791 101.477 29.3298L101.705 30.7136C101.488 30.7956 101.264 30.8545 101.036 30.8891C100.789 30.9322 100.54 30.9547 100.29 30.9563C98.9507 30.9563 98.2812 30.2291 98.2812 28.7747" fill="white"/>
<path d="M109.599 26.8177H104.082C104.17 28.5836 105.012 29.4666 106.607 29.4666C107.017 29.465 107.425 29.4165 107.823 29.322C108.231 29.2276 108.63 29.098 109.016 28.9348L109.437 30.2566C108.443 30.726 107.355 30.961 106.256 30.9433C105.469 30.9661 104.689 30.7884 103.989 30.427C103.384 30.0986 102.899 29.587 102.603 28.9657C102.275 28.2452 102.116 27.4593 102.138 26.668C102.117 25.8388 102.286 25.0158 102.631 24.2618C102.926 23.6219 103.403 23.0832 104.002 22.7128C104.616 22.3509 105.319 22.1668 106.031 22.181C106.739 22.156 107.436 22.3518 108.027 22.7412C108.559 23.1118 108.972 23.6295 109.215 24.2308C109.48 24.8866 109.612 25.5888 109.602 26.2962L109.599 26.8177ZM107.715 25.5914C107.72 25.043 107.538 24.5092 107.198 24.0785C107.047 23.9088 106.86 23.7746 106.651 23.6853C106.441 23.5961 106.215 23.5541 105.988 23.5622C105.759 23.5573 105.531 23.6008 105.321 23.6897C105.11 23.7787 104.92 23.9112 104.764 24.0785C104.4 24.5028 104.177 25.0297 104.126 25.5863L107.715 25.5914Z" fill="white"/>
<path d="M111.058 24.471C111.058 24.008 111.037 23.3023 110.996 22.3539H112.803C112.834 22.588 112.864 22.8677 112.894 23.193C112.923 23.5183 112.943 23.7825 112.953 23.9856C113.148 23.6567 113.369 23.3441 113.614 23.051C113.827 22.8011 114.083 22.592 114.37 22.434C114.674 22.2718 115.015 22.1901 115.359 22.1965C115.621 22.1905 115.881 22.2218 116.134 22.2894L115.891 23.9624C115.688 23.9033 115.478 23.8746 115.266 23.8772C114.844 23.8682 114.429 23.9899 114.079 24.2257C113.656 24.5441 113.288 24.9306 112.992 25.3694V30.791H111.068L111.058 24.471Z" fill="white"/>
<path d="M117.208 34.2376C116.972 34.1994 116.74 34.1433 116.513 34.0698L116.864 32.6628C117.027 32.7063 117.191 32.7417 117.357 32.7686C117.543 32.8016 117.732 32.8189 117.92 32.8203C118.781 32.8203 119.422 32.2703 119.844 31.1705L119.968 30.8581L116.87 22.3539H118.935L120.499 27.1069C120.703 27.719 120.868 28.3433 120.993 28.9761C121.139 28.3668 121.311 27.7575 121.509 27.1482L123.094 22.3539H125.041L121.943 30.8969C121.71 31.5849 121.392 32.2414 120.998 32.8512C120.696 33.313 120.283 33.6919 119.797 33.9536C119.278 34.2058 118.706 34.3289 118.129 34.3125C117.826 34.3139 117.523 34.2888 117.223 34.2376" fill="white"/>
<path d="M50.1784 13.6355V15.7783L49.2102 15.848V14.521H45.0795V15.7757L44.1139 15.8454V13.6355H44.589C44.8968 12.9278 45.1154 12.1846 45.2395 11.423C45.3977 10.5138 45.4841 9.5936 45.4977 8.67087H49.2929V13.6355H50.1784ZM46.1586 11.7302C46.049 12.3837 45.8663 13.0228 45.6139 13.6355H48.2808V9.56932H46.4168C46.3824 10.2957 46.2961 11.0187 46.1586 11.7328" fill="white"/>
<path d="M51.9933 14.2344C51.5708 13.9955 51.2293 13.6359 51.0123 13.2017C50.7774 12.7198 50.6614 12.1887 50.674 11.6527C50.6612 11.0926 50.7852 10.5379 51.0355 10.0366C51.2656 9.58542 51.6252 9.21325 52.0682 8.96775C52.5615 8.70677 53.1135 8.57697 53.6714 8.59081C54.2033 8.57892 54.7289 8.70809 55.1946 8.96517C55.6143 9.20452 55.9524 9.56426 56.1654 9.99786C56.3969 10.4753 56.5119 11.0008 56.501 11.5314C56.5152 12.0977 56.3902 12.6588 56.137 13.1656C55.9062 13.6163 55.5468 13.9883 55.1043 14.2344C54.616 14.4936 54.0692 14.6225 53.5165 14.6088C52.9862 14.6228 52.4616 14.4964 51.9959 14.2422L51.9933 14.2344ZM54.6112 13.527C54.894 13.3371 55.1141 13.0676 55.2437 12.7525C55.3889 12.3908 55.46 12.0037 55.4528 11.614C55.4589 11.2323 55.3959 10.8527 55.2669 10.4935C55.1508 10.1819 54.944 9.91211 54.6731 9.71904C54.3635 9.51324 53.9964 9.41108 53.625 9.42729C53.2584 9.4176 52.8977 9.52129 52.5923 9.72419C52.3069 9.9222 52.0846 10.1983 51.952 10.5194C51.8061 10.8674 51.7332 11.2417 51.7377 11.6191C51.7312 12.0064 51.7996 12.3912 51.9391 12.7525C52.062 13.0711 52.2768 13.3461 52.5561 13.5425C52.8613 13.7455 53.2225 13.8475 53.5888 13.8343C53.9538 13.8461 54.3139 13.7471 54.6215 13.5503" fill="white"/>
<path d="M58.5871 14.2629C58.1618 14.0392 57.8164 13.6893 57.5983 13.2612C57.3598 12.7695 57.2438 12.2274 57.2601 11.6812C57.2459 11.1143 57.3672 10.5524 57.6138 10.0418C57.8347 9.59504 58.1834 9.22394 58.6155 8.97554C59.0737 8.7208 59.5913 8.59249 60.1155 8.60377C60.4244 8.60228 60.7323 8.63958 61.032 8.71478C61.307 8.78289 61.5724 8.88524 61.822 9.01943L61.5638 9.79394C61.1353 9.55811 60.6561 9.42966 60.1671 9.41959C59.811 9.40488 59.4583 9.49462 59.1525 9.67777C58.868 9.8659 58.6475 10.136 58.52 10.4523C58.3681 10.8258 58.2943 11.2264 58.3031 11.6295C58.2954 12.0173 58.3656 12.4027 58.5096 12.7629C58.6372 13.0815 58.861 13.3522 59.1499 13.5374C59.4802 13.7341 59.8604 13.831 60.2445 13.8162C60.741 13.8082 61.2298 13.6928 61.6774 13.478L61.9072 14.2112C61.6531 14.3377 61.3855 14.4347 61.1094 14.5004C60.7936 14.5727 60.4704 14.6074 60.1464 14.6037C59.6095 14.6175 59.0774 14.4987 58.5974 14.2577" fill="white"/>
<path d="M62.3538 14.6036C62.2656 14.5881 62.1791 14.5638 62.0956 14.5313L62.204 13.7258C62.3057 13.7668 62.4146 13.787 62.5242 13.7852C62.6271 13.7897 62.7278 13.7546 62.8056 13.6871C62.8902 13.6011 62.9522 13.4956 62.9863 13.3799C63.0454 13.1944 63.0894 13.0045 63.118 12.8119C63.3161 11.4432 63.4317 10.0638 63.4639 8.68118H67.4527V14.521H66.4484V9.56929H64.383C64.334 10.7282 64.2246 11.8838 64.0551 13.0314C64.009 13.3572 63.916 13.6746 63.7789 13.9737C63.6866 14.1853 63.5339 14.3649 63.34 14.49C63.1418 14.599 62.918 14.6525 62.692 14.6449C62.5812 14.6455 62.4706 14.636 62.3615 14.6165" fill="white"/>
<path d="M69.9622 8.68118H68.9527V14.5236H69.9622V8.68118Z" fill="white"/>
<path d="M77.0361 13.6355V15.7783L76.0679 15.848V14.521H71.9372V15.7757L70.9716 15.8454V13.6355H71.4595C71.763 12.9273 71.9772 12.184 72.0972 11.423C72.2554 10.5138 72.3417 9.5936 72.3554 8.67087H76.1505V13.6355H77.0361ZM73.0215 11.7328C72.9119 12.3863 72.7291 13.0254 72.4767 13.6381H75.1436V9.56932H73.2667C73.2323 10.2957 73.146 11.0187 73.0086 11.7328" fill="white"/>
<path d="M84.8459 14.521H83.7047L82.0989 11.9393H81.5826V14.521H80.5731V11.9393H80.0568L78.4303 14.521H77.2891L79.339 11.3378L78.3915 9.81201C78.3246 9.69863 78.2371 9.5988 78.1334 9.51769C78.045 9.45824 77.9404 9.42758 77.8339 9.42991C77.7252 9.43078 77.6179 9.45453 77.5189 9.49962L77.3046 8.7251C77.498 8.64658 77.7053 8.60794 77.9139 8.6115C78.1599 8.60037 78.4033 8.66527 78.611 8.79739C78.8143 8.9482 78.9847 9.13881 79.1119 9.35762L80.2065 11.1002H80.5705V8.68121H81.58V11.0925H81.9388L83.0309 9.35762C83.1554 9.13925 83.3232 8.94861 83.524 8.79739C83.7302 8.66378 83.973 8.59789 84.2185 8.60892C84.4289 8.60466 84.638 8.64331 84.8329 8.72252L84.6238 9.49704C84.5245 9.45327 84.4174 9.42957 84.3089 9.42733C84.2015 9.42446 84.0959 9.45515 84.0068 9.51511C83.9019 9.59498 83.8142 9.69505 83.7486 9.80943L82.8011 11.3352L84.8459 14.521Z" fill="white"/>
<path d="M90.2906 8.68118L88.1633 13.1062L88.0187 13.4005C87.8972 13.6605 87.7437 13.9042 87.5618 14.126C87.4263 14.2896 87.2561 14.4211 87.0635 14.5107C86.8676 14.5933 86.6565 14.6338 86.4439 14.6294C86.2294 14.6371 86.0154 14.6029 85.8139 14.5288L85.9224 13.7542C86.1399 13.8395 86.3796 13.8504 86.6039 13.7852C86.7025 13.7526 86.7913 13.6958 86.8621 13.62C86.9571 13.5146 87.0354 13.3953 87.0945 13.2663L87.1719 13.1243L84.8845 8.68118H85.9895L87.6754 12.1432L89.2734 8.68118H90.2906Z" fill="white"/>
<path d="M95.0177 14.521V11.3119C95.0177 10.9092 95.0324 10.4471 95.0616 9.9256L92.1288 14.521H91.0083V8.68121H91.9455V12.0168C91.9455 12.3799 91.9334 12.7766 91.9093 13.2069L94.7983 8.68121H95.9575V14.521H95.0177ZM92.7432 8.17261C92.5457 8.07274 92.3782 7.92216 92.2579 7.7363C92.1476 7.56237 92.0754 7.36702 92.0462 7.16315H92.7716C92.8059 7.33965 92.9005 7.49873 93.0392 7.61311C93.178 7.72749 93.3522 7.79004 93.532 7.79004C93.7118 7.79004 93.886 7.72749 94.0247 7.61311C94.1634 7.49873 94.258 7.33965 94.2923 7.16315H95.0229C94.9934 7.36696 94.9213 7.56227 94.8112 7.7363C94.6902 7.92251 94.5218 8.07311 94.3233 8.17261C94.0769 8.29313 93.8048 8.35162 93.5307 8.343C93.2625 8.34961 92.9968 8.29115 92.7561 8.17261" fill="white"/>
</svg>
