<svg width="136" height="41" viewBox="0 0 136 41" fill="none" xmlns="http://www.w3.org/2000/svg">
<path d="M130.264 0.738434H5.26404C2.50262 0.738434 0.264038 2.97701 0.264038 5.73843V35.7384C0.264038 38.4998 2.50262 40.7384 5.26404 40.7384H130.264C133.025 40.7384 135.264 38.4998 135.264 35.7384V5.73843C135.264 2.97701 133.025 0.738434 130.264 0.738434Z" fill="black"/>
<path d="M68.4041 22.4885C67.5644 22.4925 66.7447 22.7451 66.0484 23.2145C65.3521 23.6839 64.8105 24.349 64.4919 25.1259C64.1733 25.9028 64.092 26.7567 64.2582 27.5798C64.4244 28.4029 64.8308 29.1583 65.4259 29.7507C66.0211 30.3431 66.7784 30.7459 67.6023 30.9083C68.4261 31.0706 69.2796 30.9853 70.0551 30.6631C70.8305 30.3408 71.4931 29.7961 71.9592 29.0976C72.4253 28.3991 72.6741 27.5782 72.6741 26.7385C72.6822 26.1765 72.5772 25.6185 72.3653 25.0979C72.1533 24.5772 71.8387 24.1046 71.4403 23.708C71.0419 23.3115 70.5678 22.9991 70.0462 22.7896C69.5245 22.5801 68.9661 22.4777 68.4041 22.4885ZM68.4041 29.3185C67.8877 29.3546 67.3723 29.2346 66.925 28.9739C66.4778 28.7132 66.1193 28.3241 65.8961 27.857C65.6729 27.3898 65.5955 26.8664 65.6738 26.3547C65.752 25.8429 65.9825 25.3666 66.335 24.9876C66.6876 24.6085 67.1461 24.3443 67.6508 24.2293C68.1556 24.1143 68.6833 24.1538 69.1653 24.3426C69.6473 24.5315 70.0613 24.8609 70.3536 25.2882C70.6459 25.7155 70.8028 26.2208 70.8041 26.7385C70.8202 27.0665 70.7704 27.3944 70.6578 27.7029C70.5452 28.0114 70.3719 28.2942 70.1482 28.5347C69.9245 28.7752 69.655 28.9684 69.3554 29.103C69.0559 29.2376 68.7324 29.3109 68.4041 29.3185ZM59.0941 22.4885C58.2539 22.4905 57.4332 22.7414 56.7356 23.2096C56.038 23.6778 55.4949 24.3423 55.1747 25.119C54.8546 25.8958 54.7718 26.75 54.937 27.5738C55.1021 28.3975 55.5076 29.1539 56.1024 29.7472C56.6972 30.3406 57.4545 30.7444 58.2786 30.9076C59.1028 31.0708 59.9568 30.986 60.7328 30.664C61.5088 30.3421 62.172 29.7973 62.6385 29.0986C63.1051 28.4 63.3541 27.5787 63.3541 26.7385C63.3622 26.1765 63.2572 25.6185 63.0453 25.0979C62.8333 24.5772 62.5187 24.1046 62.1203 23.708C61.7219 23.3115 61.2478 22.9991 60.7262 22.7896C60.2045 22.5801 59.6461 22.4777 59.0841 22.4885H59.0941ZM59.0941 29.3185C58.5774 29.3567 58.0612 29.2384 57.6127 28.9791C57.1642 28.7198 56.8042 28.3314 56.5794 27.8646C56.3547 27.3978 56.2757 26.8742 56.3528 26.3618C56.4298 25.8495 56.6593 25.3723 57.0114 24.9922C57.3635 24.6121 57.8218 24.3469 58.3267 24.2309C58.8317 24.115 59.3598 24.1538 59.8424 24.3422C60.325 24.5306 60.7397 24.86 61.0325 25.2874C61.3253 25.7148 61.4827 26.2204 61.4841 26.7385C61.5002 27.0665 61.4504 27.3944 61.3378 27.7029C61.2252 28.0114 61.0519 28.2942 60.8282 28.5347C60.6045 28.7752 60.335 28.9684 60.0354 29.103C59.7359 29.2376 59.4124 29.3109 59.0841 29.3185H59.0941ZM48.0041 23.7985V25.5985H52.3241C52.2563 26.4463 51.9039 27.2463 51.3241 27.8685C50.8919 28.3088 50.3723 28.6536 49.7988 28.881C49.2253 29.1083 48.6105 29.2131 47.9941 29.1885C46.721 29.1885 45.5001 28.6828 44.6 27.7826C43.6998 26.8825 43.1941 25.6616 43.1941 24.3885C43.1941 23.1155 43.6998 21.8946 44.6 20.9944C45.5001 20.0942 46.721 19.5885 47.9941 19.5885C49.2119 19.5687 50.3878 20.0326 51.2641 20.8785L52.5341 19.6085C51.9426 19.0095 51.2368 18.5354 50.4587 18.2142C49.6806 17.893 48.8459 17.7312 48.0041 17.7385C47.1151 17.7039 46.2282 17.8491 45.3967 18.1655C44.5652 18.4818 43.806 18.9628 43.1648 19.5795C42.5236 20.1963 42.0135 20.9361 41.6651 21.7547C41.3166 22.5733 41.137 23.4538 41.137 24.3435C41.137 25.2332 41.3166 26.1137 41.6651 26.9323C42.0135 27.7509 42.5236 28.4908 43.1648 29.1075C43.806 29.7243 44.5652 30.2052 45.3967 30.5215C46.2282 30.8379 47.1151 30.9831 48.0041 30.9485C48.86 30.9872 49.7143 30.8421 50.5095 30.523C51.3047 30.2039 52.0223 29.7182 52.6141 29.0985C53.6618 27.9474 54.2211 26.4343 54.1741 24.8785C54.1773 24.4995 54.1438 24.1211 54.0741 23.7485L48.0041 23.7985ZM93.3141 25.1985C93.0533 24.4313 92.5656 23.7613 91.9156 23.2774C91.2656 22.7934 90.4839 22.5183 89.6741 22.4885C89.1271 22.4874 88.5857 22.5986 88.0833 22.8151C87.581 23.0315 87.1284 23.3487 86.7535 23.7471C86.3786 24.1454 86.0893 24.6164 85.9037 25.1309C85.718 25.6454 85.6399 26.1926 85.6741 26.7385C85.6619 27.2974 85.7625 27.8531 85.9699 28.3722C86.1773 28.8914 86.4872 29.3634 86.8811 29.7601C87.275 30.1568 87.7449 30.47 88.2625 30.6811C88.7802 30.8922 89.3351 30.9967 89.8941 30.9885C90.5936 30.9923 91.2831 30.8225 91.9009 30.4944C92.5187 30.1663 93.0455 29.6902 93.4341 29.1085L91.9841 28.1085C91.7677 28.4693 91.4613 28.7677 91.0949 28.9746C90.7286 29.1814 90.3148 29.2896 89.8941 29.2885C89.4609 29.305 89.0328 29.1908 88.6654 28.9608C88.298 28.7307 88.0084 28.3954 87.8341 27.9985L93.5241 25.6485L93.3141 25.1985ZM87.5141 26.6185C87.4938 26.3092 87.5355 25.999 87.6366 25.706C87.7377 25.4129 87.8963 25.1431 88.103 24.9121C88.3098 24.6812 88.5605 24.4938 88.8406 24.3609C89.1207 24.2281 89.4244 24.1525 89.7341 24.1385C90.0566 24.1173 90.3784 24.1912 90.6592 24.3512C90.9401 24.5112 91.1678 24.7502 91.3141 25.0385L87.5141 26.6185ZM82.8941 30.7385H84.7641V18.2385H82.8941V30.7385ZM79.8341 23.4385H79.7641C79.4822 23.1234 79.137 22.8714 78.751 22.6991C78.3649 22.5268 77.9468 22.438 77.5241 22.4385C76.4313 22.4915 75.4007 22.9629 74.6461 23.7551C73.8914 24.5473 73.4704 25.5994 73.4704 26.6935C73.4704 27.7876 73.8914 28.8398 74.6461 29.6319C75.4007 30.4241 76.4313 30.8955 77.5241 30.9485C77.9478 30.9556 78.368 30.8698 78.755 30.697C79.142 30.5243 79.4865 30.2688 79.7641 29.9485H79.8241V30.5585C79.8241 32.1885 78.9541 33.0585 77.5541 33.0585C77.0878 33.0476 76.6353 32.8982 76.2542 32.6293C75.8731 32.3604 75.5807 31.9842 75.4141 31.5485L73.7841 32.2285C74.0909 32.9749 74.6137 33.6126 75.2854 34.0598C75.9571 34.507 76.7471 34.7433 77.5541 34.7385C79.7441 34.7385 81.5541 33.4485 81.5541 30.3085V22.7385H79.8341V23.4385ZM77.6941 29.3185C77.049 29.2617 76.4487 28.9653 76.0113 28.4877C75.574 28.0101 75.3315 27.3861 75.3315 26.7385C75.3315 26.091 75.574 25.4669 76.0113 24.9893C76.4487 24.5118 77.049 24.2154 77.6941 24.1585C78.0139 24.1749 78.3272 24.2552 78.6155 24.3946C78.9039 24.5339 79.1614 24.7296 79.3729 24.97C79.5845 25.2104 79.7458 25.4908 79.8473 25.7945C79.9488 26.0982 79.9885 26.4192 79.9641 26.7385C79.9914 27.0592 79.9533 27.3821 79.8522 27.6877C79.7512 27.9932 79.5892 28.2751 79.376 28.5163C79.1629 28.7575 78.9031 28.9529 78.6123 29.0908C78.3215 29.2287 78.0057 29.3062 77.6841 29.3185H77.6941ZM102.074 18.2385H97.6041V30.7385H99.4741V25.9985H102.084C102.617 26.0368 103.152 25.9649 103.656 25.7872C104.16 25.6096 104.622 25.33 105.013 24.966C105.404 24.602 105.716 24.1613 105.929 23.6714C106.143 23.1814 106.253 22.6528 106.253 22.1185C106.253 21.5842 106.143 21.0556 105.929 20.5657C105.716 20.0758 105.404 19.6351 105.013 19.271C104.622 18.907 104.16 18.6274 103.656 18.4498C103.152 18.2721 102.617 18.2002 102.084 18.2385H102.074ZM102.074 24.2385H99.4641V19.9785H102.114C102.683 19.9785 103.228 20.2045 103.631 20.6068C104.033 21.009 104.259 21.5546 104.259 22.1235C104.259 22.6924 104.033 23.238 103.631 23.6403C103.228 24.0425 102.683 24.2685 102.114 24.2685L102.074 24.2385ZM113.604 22.4385C112.923 22.3978 112.245 22.5569 111.654 22.8962C111.062 23.2356 110.583 23.7403 110.274 24.3485L111.934 25.0385C112.098 24.7369 112.345 24.4893 112.647 24.326C112.949 24.1626 113.292 24.0906 113.634 24.1185C113.871 24.0908 114.112 24.1106 114.342 24.1768C114.571 24.2431 114.785 24.3544 114.972 24.5042C115.158 24.6541 115.312 24.8395 115.426 25.0497C115.54 25.2599 115.61 25.4907 115.634 25.7285V25.8585C115.033 25.5405 114.364 25.3756 113.684 25.3785C111.894 25.3785 110.084 26.3785 110.084 28.1885C110.102 28.5745 110.197 28.9529 110.363 29.3016C110.529 29.6502 110.764 29.9619 111.053 30.2183C111.342 30.4747 111.68 30.6705 112.046 30.7942C112.412 30.9179 112.799 30.967 113.184 30.9385C113.655 30.9723 114.126 30.8788 114.549 30.6676C114.971 30.4565 115.328 30.1355 115.584 29.7385H115.644V30.7385H117.444V25.9285C117.444 23.7385 115.784 22.4685 113.654 22.4685L113.604 22.4385ZM113.374 29.2885C112.764 29.2885 111.914 28.9785 111.914 28.2285C111.914 27.2285 112.974 26.8985 113.914 26.8985C114.508 26.8839 115.095 27.0289 115.614 27.3185C115.551 27.8599 115.295 28.3605 114.893 28.728C114.491 29.0955 113.969 29.3052 113.424 29.3185L113.374 29.2885ZM124.004 22.7385L121.864 28.1585H121.804L119.584 22.7385H117.584L120.914 30.3185L119.014 34.5285H120.964L126.084 22.7385H124.004ZM107.194 30.7385H109.064V18.2385H107.194V30.7385Z" fill="white"/>
<path d="M10.704 8.2784C10.3781 8.66951 10.2136 9.1702 10.2441 9.6784V31.7984C10.2136 32.3066 10.3781 32.8073 10.704 33.1984L10.774 33.2684L23.164 20.8884V20.5984L10.774 8.2084L10.704 8.2784Z" fill="url(#paint0_linear_1_233)"/>
<path d="M27.2641 25.0184L23.1641 20.8884V20.5984L27.2641 16.4584L27.3541 16.5084L32.2641 19.2984C33.6641 20.0884 33.6641 21.3884 32.2641 22.1884L27.3741 24.9684L27.2641 25.0184Z" fill="#FFCE00"/>
<path d="M27.3839 24.9584L23.1639 20.7384L10.7039 33.1984C10.9893 33.4493 11.3533 33.5925 11.7331 33.6035C12.1129 33.6144 12.4846 33.4924 12.7839 33.2584L27.3939 24.9584" fill="#F93647"/>
<path d="M27.3839 16.5184L12.7739 8.21848C12.4746 7.98449 12.1029 7.86243 11.7231 7.87339C11.3433 7.88434 10.9793 8.02763 10.6939 8.27848L23.1639 20.7384L27.3839 16.5184Z" fill="url(#paint1_linear_1_233)"/>
<path opacity="0.2" d="M27.2639 24.8683L12.7739 33.1183C12.4852 33.3341 12.1344 33.4508 11.7739 33.4508C11.4135 33.4508 11.0627 33.3341 10.7739 33.1183L10.7039 33.1883L10.7739 33.2583C11.062 33.4757 11.4131 33.5933 11.7739 33.5933C12.1348 33.5933 12.4859 33.4757 12.7739 33.2583L27.3839 24.9583L27.2639 24.8683Z" fill="black"/>
<path d="M10.704 33.0583C10.3781 32.6672 10.2136 32.1665 10.2441 31.6583V31.8083C10.2136 32.3165 10.3781 32.8172 10.704 33.2083L10.774 33.1383L10.704 33.0583Z" fill="black"/>
<path d="M32.264 22.0384L27.264 24.8684L27.354 24.9584L32.264 22.1784C32.5426 22.0475 32.7818 21.8455 32.9573 21.5927C33.1329 21.3398 33.2387 21.0452 33.264 20.7384C33.2078 21.0171 33.0884 21.2792 32.915 21.5046C32.7417 21.7299 32.519 21.9126 32.264 22.0384Z" fill="black"/>
<path d="M12.774 8.35837L32.264 19.4383C32.5189 19.5642 32.7416 19.7468 32.915 19.9722C33.0884 20.1975 33.2077 20.4596 33.264 20.7383C33.2387 20.4316 33.1329 20.1369 32.9573 19.8841C32.7817 19.6313 32.5426 19.4292 32.264 19.2983L12.774 8.21837C11.374 7.42837 10.234 8.08837 10.234 9.68837V9.83837C10.264 8.22837 11.384 7.56837 12.774 8.35837Z" fill="black"/>
<path d="M43.584 13.9084C43.1648 13.9013 42.7573 13.769 42.414 13.5284C42.0232 13.2636 41.7423 12.8654 41.624 12.4084L42.354 12.0984C42.4271 12.3923 42.5874 12.6573 42.814 12.8584C43.0264 13.0371 43.2964 13.133 43.574 13.1283C43.8827 13.1323 44.1819 13.0219 44.414 12.8184C44.5238 12.7245 44.6119 12.6079 44.6723 12.4767C44.7327 12.3455 44.764 12.2028 44.764 12.0584C44.7613 11.9148 44.7278 11.7736 44.6657 11.6441C44.6036 11.5147 44.5143 11.4002 44.404 11.3084C44.1612 11.1028 43.852 10.9926 43.534 10.9984H43.014V10.2484H43.474C43.7569 10.2589 44.034 10.1666 44.254 9.98838C44.3556 9.90307 44.4364 9.79564 44.4901 9.67431C44.5439 9.55298 44.5691 9.42097 44.564 9.28838C44.5695 9.16395 44.5452 9.04001 44.493 8.92693C44.4408 8.81384 44.3623 8.7149 44.264 8.63838C44.0488 8.47486 43.7841 8.39014 43.514 8.39838C43.2828 8.39273 43.0568 8.46736 42.8745 8.60958C42.6922 8.75179 42.5648 8.9528 42.514 9.17838L41.774 8.86838C41.8995 8.53116 42.1137 8.23405 42.394 8.00838C42.7221 7.74579 43.1341 7.61081 43.554 7.62838C44.0431 7.61586 44.5198 7.78308 44.894 8.09838C45.0656 8.2446 45.2022 8.42737 45.2939 8.63329C45.3856 8.83921 45.4301 9.06304 45.424 9.28838C45.4326 9.55831 45.3613 9.82478 45.219 10.0543C45.0766 10.2838 44.8696 10.4662 44.624 10.5784C44.91 10.6969 45.1588 10.8903 45.344 11.1384C45.5335 11.3957 45.632 11.7088 45.624 12.0284C45.6294 12.2783 45.5793 12.5264 45.4773 12.7546C45.3753 12.9829 45.2238 13.1857 45.034 13.3484C44.6406 13.7145 44.1213 13.915 43.584 13.9084Z" fill="white"/>
<path d="M46.1041 13.7384L48.4641 7.46841H49.3741L51.7341 13.7384H50.8441L50.2441 12.0384H47.6041L46.9941 13.7384H46.1041ZM47.8841 11.2884H49.9641L48.9641 8.45841L47.8841 11.2884Z" fill="white"/>
<path d="M52.5441 13.7383V7.4983H54.8141C55.2845 7.49328 55.739 7.66862 56.0841 7.9883C56.2582 8.13952 56.3968 8.32723 56.4902 8.53809C56.5835 8.74894 56.6292 8.97777 56.6241 9.2083C56.6302 9.48898 56.5499 9.76475 56.3941 9.9983C56.2406 10.2266 56.0257 10.4069 55.7741 10.5183C56.0757 10.6183 56.3404 10.8064 56.5341 11.0583C56.7322 11.3123 56.838 11.6262 56.8341 11.9483C56.8434 12.1954 56.7969 12.4414 56.6983 12.6682C56.5996 12.8949 56.4512 13.0966 56.2641 13.2583C55.8995 13.594 55.4197 13.7766 54.9241 13.7683L52.5441 13.7383ZM53.3441 10.1583H54.8041C54.9403 10.1642 55.0761 10.1404 55.2021 10.0886C55.3282 10.0368 55.4415 9.95823 55.5341 9.8583C55.7076 9.68241 55.8048 9.44532 55.8048 9.1983C55.8048 8.95128 55.7076 8.71419 55.5341 8.5383C55.4465 8.44016 55.3384 8.36244 55.2174 8.31061C55.0965 8.25878 54.9656 8.23409 54.8341 8.2383H53.3341L53.3441 10.1583ZM53.3441 12.9683H54.9641C55.1046 12.9706 55.244 12.9433 55.3732 12.8882C55.5025 12.8331 55.6186 12.7513 55.7141 12.6483C55.8068 12.5548 55.8801 12.444 55.9299 12.3222C55.9797 12.2003 56.0049 12.0699 56.0041 11.9383C55.9911 11.6633 55.8707 11.4044 55.6687 11.2174C55.4667 11.0303 55.1993 10.9301 54.9241 10.9383H53.3541L53.3441 12.9683Z" fill="white"/>
<path d="M57.264 13.7384L59.624 7.46841H60.534L62.864 13.7384H61.974L61.374 12.0384H58.734L58.124 13.7384H57.264ZM59.044 11.2884H61.124L60.124 8.45841L59.044 11.2884Z" fill="white"/>
<path d="M63.674 13.7384V7.49844H64.474V10.1884H67.604V7.49844H68.404V13.7384H67.604V10.9384H64.484V13.7384H63.674Z" fill="white"/>
<path d="M71.834 13.7384H71.034V8.23841H69.264V7.46841H73.564V8.23841H71.834V13.7384Z" fill="white"/>
<path d="M73.374 13.7384L75.734 7.46841H76.644L79.004 13.7384H78.114L77.514 12.0384H74.874L74.264 13.7384H73.374ZM75.154 11.2884H77.264L76.264 8.45841L75.154 11.2884Z" fill="white"/>
<path d="M83.814 10.8984V13.7384H83.014V10.8984L80.544 13.7384H79.544L82.184 10.7384L79.594 7.53848H80.594L82.994 10.5385V7.53848H83.794V10.5385L86.194 7.53848H87.194L84.694 10.7384L87.334 13.7384H86.264L83.834 10.8684L83.814 10.8984Z" fill="white"/>
<path d="M92.934 7.49844V13.7384H92.134V9.83844V8.62844L88.944 13.7384H88.104V7.49844H88.904V11.1684V12.3784L91.904 7.50844L92.934 7.49844Z" fill="white"/>
<path d="M96.344 13.7384H95.544V8.23841H93.794V7.46841H98.094V8.23841H96.344V13.7384Z" fill="white"/>
<path d="M103.824 7.49844V13.7384H103.024V9.83844V8.62844L99.834 13.7384H98.994V7.49844H99.794V11.1684V12.3784L102.794 7.50844L103.824 7.49844Z" fill="white"/>
<path d="M108.654 13.9085C108.235 13.9014 107.827 13.7691 107.484 13.5285C107.093 13.2637 106.812 12.8655 106.694 12.4085L107.424 12.0985C107.497 12.3924 107.657 12.6574 107.884 12.8585C108.096 13.0372 108.366 13.1332 108.644 13.1284C108.953 13.1324 109.252 13.022 109.484 12.8185C109.594 12.7246 109.682 12.608 109.742 12.4768C109.803 12.3456 109.834 12.2029 109.834 12.0585C109.831 11.9149 109.798 11.7737 109.736 11.6442C109.674 11.5148 109.584 11.4003 109.474 11.3085C109.231 11.1029 108.922 10.9927 108.604 10.9985H108.084V10.2485H108.544C108.827 10.259 109.104 10.1667 109.324 9.98848C109.426 9.90317 109.506 9.79574 109.56 9.67441C109.614 9.55308 109.639 9.42107 109.634 9.28848C109.639 9.16405 109.615 9.04011 109.563 8.92703C109.511 8.81394 109.432 8.715 109.334 8.63848C109.119 8.47496 108.854 8.39024 108.584 8.39848C108.353 8.39283 108.127 8.46746 107.944 8.60968C107.762 8.75189 107.635 8.9529 107.584 9.17848L106.844 8.86848C106.969 8.53126 107.184 8.23415 107.464 8.00848C107.792 7.7467 108.204 7.61182 108.624 7.62848C109.113 7.61596 109.59 7.78318 109.964 8.09848C110.135 8.2447 110.272 8.42747 110.364 8.63339C110.456 8.83931 110.5 9.06314 110.494 9.28848C110.503 9.55841 110.431 9.82488 110.289 10.0544C110.147 10.2839 109.94 10.4663 109.694 10.5785C109.98 10.697 110.229 10.8904 110.414 11.1385C110.603 11.3958 110.702 11.7089 110.694 12.0285C110.699 12.2784 110.649 12.5265 110.547 12.7547C110.445 12.983 110.294 13.1858 110.104 13.3485C109.711 13.7146 109.191 13.9151 108.654 13.9085Z" fill="white"/>
<defs>
<linearGradient id="paint0_linear_1_233" x1="22.064" y1="9.4484" x2="5.28406" y2="26.2284" gradientUnits="userSpaceOnUse">
<stop stop-color="#00A0FF"/>
<stop offset="0.01" stop-color="#00A1FF"/>
<stop offset="0.26" stop-color="#00BEFF"/>
<stop offset="0.51" stop-color="#00D2FF"/>
<stop offset="0.76" stop-color="#00DFFF"/>
<stop offset="1" stop-color="#00E3FF"/>
</linearGradient>
<linearGradient id="paint1_linear_1_233" x1="7.56394" y1="0.918478" x2="17.7239" y2="11.0784" gradientUnits="userSpaceOnUse">
<stop stop-color="#32A071"/>
<stop offset="0.07" stop-color="#2DA771"/>
<stop offset="0.48" stop-color="#15CF74"/>
<stop offset="0.8" stop-color="#06E775"/>
<stop offset="1" stop-color="#00F076"/>
</linearGradient>
</defs>
</svg>
