<svg width="136" height="41" viewBox="0 0 136 41" fill="none" xmlns="http://www.w3.org/2000/svg">
<path d="M130.264 0.738434H5.26404C2.50262 0.738434 0.264038 2.97701 0.264038 5.73843V35.7384C0.264038 38.4998 2.50262 40.7384 5.26404 40.7384H130.264C133.025 40.7384 135.264 38.4998 135.264 35.7384V5.73843C135.264 2.97701 133.025 0.738434 130.264 0.738434Z" fill="black"/>
<path d="M33.0613 21.0393C33.0721 20.2046 33.2938 19.3862 33.7058 18.6603C34.1178 17.9343 34.7068 17.3244 35.4179 16.8872C34.9661 16.242 34.3702 15.7111 33.6774 15.3366C32.9845 14.962 32.2139 14.7542 31.4267 14.7295C29.7475 14.5533 28.1195 15.7344 27.2638 15.7344C26.3915 15.7344 25.074 14.747 23.6553 14.7762C22.7376 14.8059 21.8433 15.0727 21.0594 15.5508C20.2755 16.0288 19.6289 16.7018 19.1824 17.5041C17.2484 20.8525 18.691 25.7736 20.5436 28.4802C21.4705 29.8055 22.5538 31.286 23.9712 31.2335C25.3583 31.1759 25.8763 30.349 27.5506 30.349C29.2094 30.349 29.6954 31.2335 31.1416 31.2001C32.63 31.1759 33.5678 29.8688 34.4621 28.5309C35.1281 27.5866 35.6406 26.5429 35.9806 25.4384C35.1158 25.0727 34.3779 24.4605 33.8588 23.6782C33.3397 22.8959 33.0623 21.9781 33.0613 21.0393Z" fill="white"/>
<path d="M30.3297 12.9495C31.1412 11.9753 31.541 10.7231 31.4442 9.45889C30.2044 9.58911 29.0591 10.1817 28.2366 11.1185C27.8345 11.5761 27.5265 12.1086 27.3302 12.6853C27.134 13.2621 27.0533 13.8719 27.0929 14.4799C27.7131 14.4862 28.3266 14.3518 28.8872 14.0867C29.4479 13.8217 29.9411 13.4328 30.3297 12.9495Z" fill="white"/>
<path d="M50.5947 27.8782H45.8613L44.7246 31.2347H42.7197L47.2031 18.8167H49.2861L53.7695 31.2347H51.7304L50.5947 27.8782ZM46.3515 26.3294H50.1035L48.2539 20.8821H48.2022L46.3515 26.3294Z" fill="white"/>
<path d="M63.4521 26.7083C63.4521 29.5218 61.9463 31.3294 59.6738 31.3294C59.0982 31.3595 58.5257 31.2269 58.0219 30.9468C57.5181 30.6666 57.1033 30.2503 56.8252 29.7454H56.7822V34.2298H54.9238V22.181H56.7226V23.6868H56.7568C57.0478 23.1844 57.4695 22.7702 57.9771 22.4883C58.4848 22.2065 59.0593 22.0675 59.6396 22.0862C61.9374 22.0862 63.4521 23.9026 63.4521 26.7083ZM61.542 26.7083C61.542 24.8753 60.5947 23.6702 59.1494 23.6702C57.7295 23.6702 56.7744 24.9007 56.7744 26.7083C56.7744 28.5325 57.7295 29.7542 59.1494 29.7542C60.5947 29.7542 61.542 28.5579 61.542 26.7083Z" fill="white"/>
<path d="M73.417 26.7083C73.417 29.5218 71.9111 31.3294 69.6386 31.3294C69.063 31.3595 68.4905 31.2269 67.9867 30.9468C67.4829 30.6666 67.0682 30.2503 66.79 29.7454H66.747V34.2298H64.8886V22.181H66.6874V23.6868H66.7216C67.0126 23.1844 67.4343 22.7702 67.9419 22.4883C68.4496 22.2065 69.0241 22.0675 69.6044 22.0862C71.9023 22.0862 73.417 23.9026 73.417 26.7083ZM71.5068 26.7083C71.5068 24.8753 70.5595 23.6702 69.1142 23.6702C67.6943 23.6702 66.7392 24.9007 66.7392 26.7083C66.7392 28.5325 67.6943 29.7542 69.1142 29.7542C70.5595 29.7542 71.5068 28.5579 71.5068 26.7083Z" fill="white"/>
<path d="M80.0029 27.7747C80.1406 29.0062 81.3369 29.8147 82.9717 29.8147C84.5381 29.8147 85.665 29.0061 85.665 27.8958C85.665 26.9319 84.9853 26.3548 83.376 25.9592L81.7666 25.5715C79.4863 25.0208 78.4277 23.9544 78.4277 22.2239C78.4277 20.0813 80.2949 18.6096 82.9463 18.6096C85.5703 18.6096 87.3691 20.0813 87.4297 22.2239H85.5537C85.4414 20.9846 84.4169 20.2366 82.9199 20.2366C81.4228 20.2366 80.3984 20.9934 80.3984 22.095C80.3984 22.9729 81.0527 23.4895 82.6533 23.885L84.0214 24.2209C86.5693 24.8235 87.6279 25.8469 87.6279 27.6633C87.6279 29.9865 85.7773 31.4416 82.8339 31.4416C80.08 31.4416 78.2207 30.0207 78.1005 27.7746L80.0029 27.7747Z" fill="white"/>
<path d="M91.6386 20.0384V22.181H93.3603V23.6526H91.6386V28.6439C91.6386 29.4192 91.9834 29.7806 92.7402 29.7806C92.9446 29.777 93.1487 29.7627 93.3515 29.7376V31.2005C93.0113 31.264 92.6654 31.2928 92.3193 31.2864C90.4863 31.2864 89.7715 30.5979 89.7715 28.8421V23.6526H88.4551V22.181H89.7714V20.0384H91.6386Z" fill="white"/>
<path d="M94.3574 26.7083C94.3574 23.8597 96.0352 22.0696 98.6514 22.0696C101.276 22.0696 102.946 23.8596 102.946 26.7083C102.946 29.5648 101.285 31.347 98.6514 31.347C96.0185 31.347 94.3574 29.5648 94.3574 26.7083ZM101.053 26.7083C101.053 24.7542 100.157 23.6009 98.6514 23.6009C97.1455 23.6009 96.251 24.763 96.251 26.7083C96.251 28.6702 97.1455 29.8148 98.6514 29.8148C100.157 29.8148 101.053 28.6702 101.053 26.7083Z" fill="white"/>
<path d="M104.478 22.181H106.251V23.722H106.294C106.414 23.2407 106.696 22.8153 107.092 22.5175C107.489 22.2196 107.976 22.0673 108.472 22.0862C108.686 22.0855 108.899 22.1087 109.108 22.1556V23.8938C108.838 23.8112 108.556 23.7733 108.273 23.7815C108.003 23.7706 107.734 23.8182 107.484 23.9211C107.235 24.024 107.01 24.1797 106.826 24.3776C106.642 24.5755 106.503 24.8108 106.419 25.0675C106.334 25.3242 106.306 25.5961 106.337 25.8645V31.2347H104.478V22.181Z" fill="white"/>
<path d="M117.677 28.5755C117.427 30.219 115.826 31.347 113.778 31.347C111.145 31.347 109.51 29.5823 109.51 26.7513C109.51 23.9114 111.153 22.0696 113.7 22.0696C116.205 22.0696 117.78 23.7903 117.78 26.5355V27.1722H111.386V27.2845C111.356 27.6177 111.398 27.9533 111.508 28.2692C111.618 28.585 111.794 28.8738 112.025 29.1164C112.255 29.3589 112.534 29.5497 112.844 29.676C113.154 29.8023 113.487 29.8612 113.821 29.8489C114.26 29.8901 114.701 29.7884 115.078 29.5589C115.455 29.3295 115.747 28.9846 115.912 28.5755H117.677ZM111.395 25.8733H115.921C115.938 25.5737 115.892 25.2739 115.787 24.9927C115.683 24.7115 115.521 24.455 115.313 24.2392C115.104 24.0235 114.853 23.8531 114.576 23.7389C114.298 23.6247 114 23.5691 113.7 23.5755C113.398 23.5737 113.098 23.6318 112.818 23.7466C112.537 23.8613 112.283 24.0304 112.069 24.244C111.854 24.4577 111.684 24.7116 111.569 24.9913C111.453 25.2709 111.394 25.5707 111.395 25.8733Z" fill="white"/>
<path d="M44.7124 12.2597H45.5103C45.6476 12.2768 45.787 12.2653 45.9197 12.2258C46.0523 12.1864 46.1754 12.1199 46.2811 12.0305C46.3868 11.9412 46.4728 11.8309 46.5338 11.7066C46.5947 11.5824 46.6293 11.4468 46.6353 11.3085C46.6353 10.7583 46.2212 10.4028 45.519 10.4028C45.3783 10.3831 45.2351 10.3919 45.0978 10.4285C44.9605 10.4651 44.832 10.5288 44.7197 10.616C44.6075 10.7031 44.5139 10.8118 44.4443 10.9357C44.3748 11.0596 44.3308 11.1962 44.3149 11.3374H43.4389C43.454 11.0811 43.5217 10.8306 43.6378 10.6016C43.7538 10.3726 43.9158 10.1699 44.1136 10.0062C44.3114 9.84253 44.5407 9.72129 44.7874 9.65007C45.0341 9.57885 45.2927 9.55917 45.5473 9.59226C46.7221 9.59226 47.5493 10.25 47.5493 11.1967C47.5521 11.5139 47.446 11.8224 47.2487 12.0708C47.0514 12.3192 46.7749 12.4924 46.4653 12.5615V12.6318C46.8323 12.6481 47.178 12.809 47.4267 13.0794C47.6754 13.3497 47.8069 13.7076 47.7925 14.0747C47.7653 14.3385 47.6858 14.5944 47.5585 14.8271C47.4312 15.0598 47.2587 15.2648 47.0511 15.4301C46.8436 15.5953 46.6051 15.7174 46.3497 15.7893C46.0944 15.8611 45.8272 15.8813 45.564 15.8486C45.3002 15.8846 45.0318 15.867 44.7749 15.7971C44.518 15.7271 44.2778 15.6061 44.0687 15.4414C43.8595 15.2766 43.6857 15.0714 43.5576 14.838C43.4294 14.6047 43.3495 14.3479 43.3228 14.083H44.2124C44.2661 14.6538 44.7905 15.022 45.564 15.022C46.3374 15.022 46.8423 14.6084 46.8423 14.0254C46.8423 13.4341 46.3667 13.0698 45.5357 13.0698H44.7124V12.2597Z" fill="white"/>
<path d="M52.4224 12.7686C52.4224 11.8086 52.0624 10.7986 50.5824 10.7986C49.9724 10.7986 49.3824 10.9686 48.9824 11.2186L49.1824 11.8086C49.5224 11.5786 49.9924 11.4486 50.4524 11.4486C51.4424 11.4386 51.5524 12.1686 51.5524 12.5586V12.6586C49.6824 12.6486 48.6424 13.2886 48.6424 14.4586C48.6424 15.1586 49.1424 15.8486 50.1224 15.8486C50.8124 15.8486 51.3324 15.5086 51.6024 15.1286H51.6324L51.7024 15.7386H52.4924C52.4424 15.4086 52.4224 14.9986 52.4224 14.5786V12.7686ZM51.5724 14.1086C51.5724 14.1886 51.5624 14.2886 51.5324 14.3886C51.3924 14.7986 50.9824 15.1986 50.3424 15.1986C49.9024 15.1986 49.5224 14.9386 49.5224 14.3586C49.5224 13.4186 50.6124 13.2486 51.5724 13.2686V14.1086Z" fill="white"/>
<path d="M53.8167 15.7386C54.0766 15.7586 54.6466 15.7986 55.1866 15.7986C56.1367 15.7986 57.7366 15.6386 57.7366 14.3686C57.7366 13.6686 57.2166 13.2786 56.5066 13.1786V13.1586C57.0566 13.0386 57.5166 12.6586 57.5166 12.0586C57.5166 10.9886 56.1766 10.8486 55.3566 10.8486C54.7966 10.8486 54.1666 10.8986 53.8167 10.9586V15.7386ZM54.6666 11.4986C54.8666 11.4786 55.0466 11.4586 55.3466 11.4586C56.2267 11.4586 56.6466 11.6886 56.6466 12.1686C56.6466 12.7486 55.9767 12.9386 55.3266 12.9386H54.6666V11.4986ZM54.6567 13.5086H55.2966C56.1267 13.5086 56.8366 13.6586 56.8366 14.3586C56.8366 15.0686 55.9566 15.1986 55.3566 15.1986C55.0866 15.1986 54.9067 15.1886 54.6567 15.1686V13.5086Z" fill="white"/>
<path d="M62.2467 12.7686C62.2467 11.8086 61.8867 10.7986 60.4067 10.7986C59.7966 10.7986 59.2066 10.9686 58.8066 11.2186L59.0066 11.8086C59.3466 11.5786 59.8167 11.4486 60.2767 11.4486C61.2667 11.4386 61.3767 12.1686 61.3767 12.5586V12.6586C59.5067 12.6486 58.4666 13.2886 58.4666 14.4586C58.4666 15.1586 58.9667 15.8486 59.9467 15.8486C60.6367 15.8486 61.1567 15.5086 61.4267 15.1286H61.4566L61.5267 15.7386H62.3167C62.2667 15.4086 62.2467 14.9986 62.2467 14.5786V12.7686ZM61.3967 14.1086C61.3967 14.1886 61.3867 14.2886 61.3567 14.3886C61.2167 14.7986 60.8067 15.1986 60.1667 15.1986C59.7267 15.1986 59.3466 14.9386 59.3466 14.3586C59.3466 13.4186 60.4367 13.2486 61.3967 13.2686V14.1086Z" fill="white"/>
<path d="M63.6409 10.8986V15.7386H64.5209V13.5486H66.8109V15.7386H67.6909V10.8986H66.8109V12.8486H64.5209V10.8986H63.6409Z" fill="white"/>
<path d="M68.4706 10.8986V11.5886H69.9806V15.7386H70.8606V11.5886H72.3706V10.8986H68.4706Z" fill="white"/>
<path d="M76.4753 12.7686C76.4753 11.8086 76.1153 10.7986 74.6353 10.7986C74.0253 10.7986 73.4353 10.9686 73.0353 11.2186L73.2353 11.8086C73.5753 11.5786 74.0453 11.4486 74.5053 11.4486C75.4953 11.4386 75.6053 12.1686 75.6053 12.5586V12.6586C73.7353 12.6486 72.6953 13.2886 72.6953 14.4586C72.6953 15.1586 73.1953 15.8486 74.1753 15.8486C74.8653 15.8486 75.3853 15.5086 75.6553 15.1286H75.6853L75.7553 15.7386H76.5452C76.4952 15.4086 76.4753 14.9986 76.4753 14.5786V12.7686ZM75.6253 14.1086C75.6253 14.1886 75.6153 14.2886 75.5853 14.3886C75.4453 14.7986 75.0353 15.1986 74.3953 15.1986C73.9553 15.1986 73.5753 14.9386 73.5753 14.3586C73.5753 13.4186 74.6653 13.2486 75.6253 13.2686V14.1086Z" fill="white"/>
<path d="M77.3094 10.8986L79.2194 13.0986C78.4894 13.1786 78.0694 13.6086 77.7694 14.3886C77.5994 14.8386 77.4394 15.3486 77.2294 15.7386H78.0894C78.2494 15.4386 78.3794 15.0586 78.5394 14.6386C78.8394 13.8486 79.2494 13.5986 79.9394 13.5986H80.0894V15.7386H80.9294V13.5986H81.0794C81.7094 13.5986 82.1594 13.8386 82.4594 14.6286C82.5994 15.0486 82.7394 15.4486 82.8994 15.7386H83.7794C83.5794 15.3586 83.4194 14.8486 83.2494 14.3786C82.9594 13.6086 82.5294 13.1786 81.7994 13.0986L83.7094 10.8986H82.6994L81.0994 13.0086H80.9294V10.8986H80.0894V13.0086H79.9194L78.3094 10.8986H77.3094Z" fill="white"/>
<path d="M83.9977 10.8986L85.7777 15.3586C85.8277 15.4686 85.8477 15.5386 85.8477 15.5886C85.8477 15.6386 85.8177 15.7086 85.7777 15.7986C85.5677 16.2486 85.2777 16.5886 85.0377 16.7786C84.7777 16.9986 84.4877 17.1386 84.2677 17.2086L84.4877 17.9386C84.7077 17.8986 85.1277 17.7486 85.5677 17.3786C86.1677 16.8486 86.5977 16.0086 87.2277 14.3486L88.5477 10.8986H87.6177L86.6577 13.7386C86.5377 14.0886 86.4377 14.4586 86.3477 14.7486H86.3277C86.2477 14.4586 86.1277 14.0786 86.0077 13.7586L84.9577 10.8986H83.9977Z" fill="white"/>
<path d="M89.3147 10.8986V15.7386H90.3347C90.8447 14.8886 91.3847 13.9586 91.8447 13.2086C92.1347 12.7186 92.3347 12.3286 92.6547 11.6986H92.6747C92.6347 12.4886 92.6147 12.8986 92.6147 13.6886V15.7386H93.4547V10.8986H92.4247L90.9147 13.3986C90.5847 13.9586 90.4247 14.2986 90.1247 14.8886L90.0947 14.8786C90.1347 14.1886 90.1547 13.6986 90.1547 12.9386V10.8986H89.3147ZM90.0847 8.92862C90.1247 9.60862 90.4647 10.1686 91.3447 10.1686C92.1147 10.1686 92.6247 9.73862 92.6747 8.92862H92.0447C91.9947 9.35862 91.7947 9.68862 91.3647 9.68862C90.9647 9.68862 90.7547 9.35862 90.7247 8.92862H90.0847Z" fill="white"/>
<path d="M94.2225 10.8986V11.5886H95.7325V15.7386H96.6125V11.5886H98.1225V10.8986H94.2225Z" fill="white"/>
<path d="M102.659 13.4786C102.679 13.3786 102.689 13.2486 102.689 13.0686C102.689 12.1786 102.279 10.7986 100.689 10.7986C99.2785 10.7986 98.4185 11.9386 98.4185 13.3986C98.4185 14.8586 99.3085 15.8486 100.799 15.8486C101.569 15.8486 102.109 15.6786 102.419 15.5386L102.259 14.9086C101.939 15.0486 101.549 15.1586 100.919 15.1586C100.029 15.1586 99.2785 14.6686 99.2585 13.4786H102.659ZM99.2685 12.8486C99.3385 12.2386 99.7185 11.4286 100.619 11.4286C101.609 11.4286 101.849 12.2986 101.839 12.8486H99.2685Z" fill="white"/>
<path d="M105.867 15.7386C106.127 15.7586 106.697 15.7986 107.237 15.7986C108.187 15.7986 109.787 15.6386 109.787 14.3686C109.787 13.6686 109.267 13.2786 108.557 13.1786V13.1586C109.107 13.0386 109.567 12.6586 109.567 12.0586C109.567 10.9886 108.227 10.8486 107.407 10.8486C106.847 10.8486 106.217 10.8986 105.867 10.9586V15.7386ZM106.717 11.4986C106.917 11.4786 107.097 11.4586 107.397 11.4586C108.277 11.4586 108.697 11.6886 108.697 12.1686C108.697 12.7486 108.027 12.9386 107.377 12.9386H106.717V11.4986ZM106.707 13.5086H107.347C108.177 13.5086 108.887 13.6586 108.887 14.3586C108.887 15.0686 108.007 15.1986 107.407 15.1986C107.137 15.1986 106.957 15.1886 106.707 15.1686V13.5086Z" fill="white"/>
</svg>
