<svg width="19" height="19" viewBox="0 0 19 19" fill="none" xmlns="http://www.w3.org/2000/svg">
<path d="M8.30404 13.5586C8.69404 13.9486 9.32404 13.9486 9.71404 13.5586L13.304 9.96855C13.694 9.57855 13.694 8.94855 13.304 8.55855L9.71404 4.96855C9.32404 4.57855 8.69404 4.57855 8.30404 4.96855C7.91404 5.35855 7.91404 5.98855 8.30404 6.37855L10.184 8.26855H1.51404C0.964038 8.26855 0.514038 8.71855 0.514038 9.26855C0.514038 9.81855 0.964038 10.2686 1.51404 10.2686H10.184L8.30404 12.1486C7.91404 12.5386 7.92404 13.1786 8.30404 13.5586ZM16.514 0.268555H2.51404C1.40404 0.268555 0.514038 1.16855 0.514038 2.26855V5.26855C0.514038 5.81855 0.964038 6.26855 1.51404 6.26855C2.06404 6.26855 2.51404 5.81855 2.51404 5.26855V3.26855C2.51404 2.71855 2.96404 2.26855 3.51404 2.26855H15.514C16.064 2.26855 16.514 2.71855 16.514 3.26855V15.2686C16.514 15.8186 16.064 16.2686 15.514 16.2686H3.51404C2.96404 16.2686 2.51404 15.8186 2.51404 15.2686V13.2686C2.51404 12.7186 2.06404 12.2686 1.51404 12.2686C0.964038 12.2686 0.514038 12.7186 0.514038 13.2686V16.2686C0.514038 17.3686 1.41404 18.2686 2.51404 18.2686H16.514C17.614 18.2686 18.514 17.3686 18.514 16.2686V2.26855C18.514 1.16855 17.614 0.268555 16.514 0.268555Z" fill="#2880DD"/>
</svg>
