<svg width="27" height="25" viewBox="0 0 27 25" fill="none" xmlns="http://www.w3.org/2000/svg">
<path d="M13.264 24.9885C19.8915 24.9885 25.264 19.6159 25.264 12.9885C25.264 6.36111 19.8915 0.988525 13.264 0.988525C6.63662 0.988525 1.26404 6.36111 1.26404 12.9885C1.26404 19.6159 6.63662 24.9885 13.264 24.9885Z" fill="#3B5A98"/>
<path d="M15.6573 7.64543H17.2638V5.10143C16.9867 5.06677 16.0335 4.98877 14.9233 4.98877C12.6068 4.98877 11.0201 6.31343 11.0201 8.7481V10.9888H8.46387V13.8328H11.0201V20.9887H14.1541V13.8334H16.6069L16.9962 10.9894H14.1533V9.0301C14.1541 8.2081 14.3975 7.64543 15.6573 7.64543Z" fill="white"/>
</svg>
