<svg width="27" height="25" viewBox="0 0 27 25" fill="none" xmlns="http://www.w3.org/2000/svg">
<path d="M15.5609 12.9885C15.5609 14.2571 14.5326 15.2854 13.2641 15.2854C11.9955 15.2854 10.9672 14.2571 10.9672 12.9885C10.9672 11.72 11.9955 10.6917 13.2641 10.6917C14.5326 10.6917 15.5609 11.72 15.5609 12.9885Z" fill="url(#paint0_linear_1_544)"/>
<path d="M18.6354 8.92474C18.525 8.62555 18.3489 8.35474 18.12 8.13245C17.8977 7.90356 17.627 7.72742 17.3277 7.617C17.0849 7.52271 16.7201 7.41046 16.0483 7.37988C15.3216 7.34674 15.1037 7.3396 13.2638 7.3396C11.4239 7.3396 11.2059 7.34656 10.4794 7.3797C9.80756 7.41046 9.44263 7.52271 9.20001 7.617C8.90063 7.72742 8.62982 7.90356 8.40772 8.13245C8.17883 8.35474 8.00269 8.62537 7.89209 8.92474C7.7978 9.16754 7.68555 9.53247 7.65497 10.2043C7.62183 10.9309 7.61469 11.1487 7.61469 12.9888C7.61469 14.8286 7.62183 15.0465 7.65497 15.7732C7.68555 16.445 7.7978 16.8098 7.89209 17.0526C8.00269 17.352 8.17865 17.6226 8.40753 17.8449C8.62982 18.0738 8.90046 18.2499 9.19983 18.3603C9.44263 18.4549 9.80756 18.5671 10.4794 18.5977C11.2059 18.6308 11.4237 18.6377 13.2637 18.6377C15.1039 18.6377 15.3217 18.6308 16.0481 18.5977C16.7199 18.5671 17.0849 18.4549 17.3277 18.3603C17.9286 18.1286 18.4036 17.6535 18.6354 17.0526C18.7297 16.8098 18.842 16.445 18.8727 15.7732C18.9059 15.0465 18.9129 14.8286 18.9129 12.9888C18.9129 11.1487 18.9059 10.9309 18.8727 10.2043C18.8422 9.53247 18.7299 9.16754 18.6354 8.92474ZM13.2638 16.5269C11.3096 16.5269 9.72535 14.9428 9.72535 12.9886C9.72535 11.0343 11.3096 9.45026 13.2638 9.45026C15.218 9.45026 16.8022 11.0343 16.8022 12.9886C16.8022 14.9428 15.218 16.5269 13.2638 16.5269ZM16.9421 10.1373C16.4854 10.1373 16.1151 9.76703 16.1151 9.31037C16.1151 8.8537 16.4854 8.48346 16.9421 8.48346C17.3988 8.48346 17.769 8.8537 17.769 9.31037C17.7688 9.76703 17.3988 10.1373 16.9421 10.1373Z" fill="url(#paint1_linear_1_544)"/>
<path d="M13.264 0.988525C6.63764 0.988525 1.26404 6.36213 1.26404 12.9885C1.26404 19.6149 6.63764 24.9885 13.264 24.9885C19.8904 24.9885 25.264 19.6149 25.264 12.9885C25.264 6.36213 19.8904 0.988525 13.264 0.988525ZM20.1131 15.8294C20.0798 16.563 19.9632 17.0637 19.7929 17.5021C19.4349 18.4277 18.7032 19.1594 17.7776 19.5174C17.3394 19.6877 16.8385 19.8041 16.1051 19.8376C15.3703 19.8711 15.1356 19.8791 13.2642 19.8791C11.3927 19.8791 11.1581 19.8711 10.4232 19.8376C9.68982 19.8041 9.18885 19.6877 8.75067 19.5174C8.29071 19.3443 7.87433 19.0731 7.53009 18.7225C7.17962 18.3785 6.90845 17.9619 6.73541 17.5021C6.56512 17.0639 6.44849 16.563 6.41516 15.8296C6.38129 15.0946 6.37342 14.8599 6.37342 12.9885C6.37342 11.1172 6.38129 10.8824 6.41497 10.1476C6.44831 9.41412 6.56476 8.91333 6.73505 8.47497C6.90808 8.0152 7.17945 7.59863 7.53009 7.25457C7.87415 6.90393 8.29071 6.63275 8.75049 6.45971C9.18885 6.28943 9.68964 6.17298 10.4232 6.13946C11.1579 6.10595 11.3927 6.0979 13.264 6.0979C15.1354 6.0979 15.3701 6.10595 16.1049 6.13965C16.8385 6.17298 17.3392 6.28943 17.7776 6.45954C18.2374 6.63257 18.654 6.90393 18.9982 7.25457C19.3486 7.59882 19.62 8.0152 19.7929 8.47497C19.9634 8.91333 20.0798 9.41412 20.1133 10.1476C20.1468 10.8824 20.1546 11.1172 20.1546 12.9885C20.1546 14.8599 20.1468 15.0946 20.1131 15.8294Z" fill="url(#paint2_linear_1_544)"/>
<defs>
<linearGradient id="paint0_linear_1_544" x1="11.2757" y1="14.9862" x2="15.2673" y2="10.9957" gradientUnits="userSpaceOnUse">
<stop stop-color="#FFDD55"/>
<stop offset="0.5" stop-color="#FF543E"/>
<stop offset="1" stop-color="#C837AB"/>
</linearGradient>
<linearGradient id="paint1_linear_1_544" x1="8.37326" y1="17.9017" x2="18.1907" y2="8.08739" gradientUnits="userSpaceOnUse">
<stop stop-color="#FFDD55"/>
<stop offset="0.5" stop-color="#FF543E"/>
<stop offset="1" stop-color="#C837AB"/>
</linearGradient>
<linearGradient id="paint2_linear_1_544" x1="2.87543" y1="23.4249" x2="23.73" y2="2.57702" gradientUnits="userSpaceOnUse">
<stop stop-color="#FFDD55"/>
<stop offset="0.5" stop-color="#FF543E"/>
<stop offset="1" stop-color="#C837AB"/>
</linearGradient>
</defs>
</svg>
