<svg width="27" height="25" viewBox="0 0 27 25" fill="none" xmlns="http://www.w3.org/2000/svg">
<path d="M13.264 24.9885C19.8915 24.9885 25.264 19.6159 25.264 12.9885C25.264 6.36111 19.8915 0.988525 13.264 0.988525C6.63662 0.988525 1.26404 6.36111 1.26404 12.9885C1.26404 19.6159 6.63662 24.9885 13.264 24.9885Z" fill="#17A3E6"/>
<path d="M10.6007 14.77L10.3757 17.897C10.6976 17.897 10.837 17.7604 11.0041 17.5963L12.5133 16.1711L15.6402 18.4341C16.2137 18.7498 16.6177 18.5836 16.7724 17.9127L18.8249 8.40841C19.0068 7.57066 18.5189 7.24249 17.9602 7.44802L5.89554 12.0126C5.07215 12.3284 5.08463 12.782 5.75557 12.9875L8.84002 13.9356L16.0045 9.50544C16.3417 9.2848 16.6483 9.40689 16.3961 9.62752L10.6007 14.77Z" fill="white"/>
</svg>
