<svg width="16" height="29" viewBox="0 0 16 29" fill="none" xmlns="http://www.w3.org/2000/svg">
<path d="M7.68734 28.1587C11.7806 28.1587 15.1108 24.8285 15.1108 20.7352C15.1108 19.5797 14.8428 18.4566 14.3396 17.4422C14.7252 17.2742 14.995 16.8902 14.995 16.4428C14.995 15.8408 14.507 15.3527 13.9048 15.3527H12.5867V13.603C12.5867 12.8564 12.8236 12.1433 13.2537 11.5952C14.2393 10.3396 14.7602 8.83059 14.7602 7.23144C14.7602 5.33974 14.0229 3.56185 12.6839 2.22553C11.3482 0.892262 9.57444 0.158691 7.68754 0.158691C7.68304 0.158691 7.67834 0.158691 7.67374 0.158691C3.90254 0.165811 0.805308 3.11869 0.623048 6.88086C0.541648 8.55589 1.05618 10.2077 2.07184 11.5321C2.54034 12.1432 2.78804 12.844 2.78804 13.5594V15.353H1.46994C0.867808 15.353 0.379878 15.8411 0.379878 16.4431C0.379878 16.8908 0.649938 17.2749 1.03569 17.4428C0.532058 18.4569 0.264038 19.58 0.264038 20.7355C0.263888 24.8285 3.59414 28.1587 7.68734 28.1587ZM7.68734 25.9785C4.79624 25.9785 2.44424 23.6263 2.44424 20.7352C2.44424 19.5684 2.82984 18.4478 3.53744 17.5329H11.8357C12.5437 18.4479 12.9306 19.5681 12.9306 20.7352C12.9306 23.6263 10.5784 25.9785 7.68734 25.9785ZM3.80194 10.2053C3.09994 9.28989 2.74444 8.14669 2.80064 6.98638C2.92464 4.4287 5.11234 2.34384 7.67774 2.3389H7.68724C8.99244 2.3389 10.2197 2.84645 11.1435 3.76854C12.0697 4.69309 12.5799 5.92288 12.5799 7.23144C12.5799 8.33769 12.2197 9.38129 11.5384 10.2491C10.8085 11.1794 10.4063 12.3705 10.4063 13.603V15.3527H4.96824V13.5591C4.96824 12.36 4.56484 11.2002 3.80194 10.2053Z" fill="white"/>
<path d="M7.68715 17.6246C5.97205 17.6246 4.57675 19.02 4.57675 20.7351C4.57675 22.4502 5.97215 23.8457 7.68715 23.8457C9.40235 23.8457 10.7978 22.4502 10.7978 20.7351C10.7978 19.02 9.40225 17.6246 7.68715 17.6246ZM7.68715 21.6655C7.17425 21.6655 6.75695 21.2481 6.75695 20.7351C6.75695 20.2221 7.17425 19.8048 7.68715 19.8048C8.20005 19.8048 8.61755 20.2222 8.61755 20.7351C8.61755 21.2482 8.20005 21.6655 7.68715 21.6655Z" fill="white"/>
</svg>
