<svg width="18" height="29" viewBox="0 0 18 29" fill="none" xmlns="http://www.w3.org/2000/svg">
<path d="M8.70934 0.158691C4.05264 0.158691 0.264038 3.94719 0.264038 8.60379V23.3243C0.264038 25.99 2.43274 28.1587 5.09864 28.1587C7.76454 28.1587 9.93314 25.9899 9.93314 23.3243V22.9402C9.93314 22.7916 9.99434 22.6471 10.101 22.5435L14.5883 18.1923C16.2192 16.6109 17.1544 14.401 17.1544 12.1293V8.60379C17.1544 3.94719 13.3661 0.158691 8.70934 0.158691ZM14.9844 12.1295C14.9844 13.8174 14.2895 15.4595 13.0777 16.6345L8.59054 20.9856C8.06474 21.4953 7.76304 22.2077 7.76304 22.9402V23.3243C7.76304 24.7935 6.56774 25.9887 5.09844 25.9887C3.62924 25.9887 2.43384 24.7933 2.43384 23.3243V8.60379C2.43384 5.14372 5.24894 2.32867 8.70914 2.32867C12.1692 2.32867 14.9843 5.14372 14.9843 8.60379L14.9844 12.1295Z" fill="white"/>
<path d="M8.70894 4.77222C6.59614 4.77222 4.87724 6.49114 4.87724 8.60399C4.87724 9.20319 5.36284 9.68899 5.96224 9.68899C6.56154 9.68899 7.04724 9.20319 7.04724 8.60399C7.04724 7.68767 7.79264 6.9422 8.70894 6.9422C9.62524 6.9422 10.3705 7.68767 10.3705 8.60399V12.1296C10.3705 12.5766 10.1865 13.0117 9.86574 13.3228L5.37954 17.6731C5.31004 17.7403 5.24224 17.8088 5.17584 17.8785C4.98414 18.0801 4.87724 18.3478 4.87724 18.6261V20.5363C4.87724 21.1355 5.36284 21.6213 5.96224 21.6213C6.56154 21.6213 7.04724 21.1355 7.04724 20.5363V19.0786L11.3763 14.8806C12.1162 14.1632 12.5407 13.1604 12.5407 12.1296V8.60379C12.5407 6.49099 10.8218 4.77222 8.70894 4.77222Z" fill="white"/>
<path d="M5.96204 14.689C6.56144 14.689 7.04704 14.2033 7.04704 13.6041V13.2405L7.12054 13.167C7.54424 12.7433 7.54424 12.0563 7.12034 11.6327C6.69654 11.2091 6.00954 11.209 5.58604 11.6328L5.19494 12.0242C4.99154 12.2276 4.87724 12.5036 4.87724 12.7913V13.6043C4.87704 14.2033 5.36274 14.689 5.96204 14.689Z" fill="white"/>
</svg>
