<svg width="28" height="26" viewBox="0 0 28 26" fill="none" xmlns="http://www.w3.org/2000/svg">
<path fill-rule="evenodd" clip-rule="evenodd" d="M3.52389 0.333374H24.4763C26.0543 0.333374 27.3335 1.54861 27.3335 3.04768V17.524C27.3335 19.023 26.0543 20.2383 24.4763 20.2383H14.0487L7.97059 25.4344C7.7687 25.607 7.49883 25.6895 7.22885 25.6612C6.70603 25.6063 6.32902 25.1593 6.38678 24.6626L6.90486 20.2383H3.52389C1.94593 20.2383 0.666748 19.023 0.666748 17.524V3.04768C0.666748 1.54861 1.94593 0.333374 3.52389 0.333374ZM7.05623 5.40004H15.1671C16.2369 5.40004 17.1122 6.23034 17.1122 7.28704V13.6463C17.1122 14.6842 16.2369 15.5333 15.1671 15.5333H7.05623C5.98645 15.5333 5.11118 14.6842 5.11118 13.6463V7.28704C5.11118 6.24924 5.98645 5.40004 7.05623 5.40004ZM21.119 6.56994C21.2162 6.51334 21.3329 6.45674 21.4497 6.43794C22.2082 6.26804 22.889 6.83414 22.889 7.53234V13.3632C22.889 13.5708 22.8306 13.7595 22.7334 13.9293C22.4027 14.4766 21.7025 14.6653 21.1384 14.3445L18.0847 12.6462V8.26834L21.119 6.56994Z" fill="white"/>
</svg>
