<svg width="23" height="29" viewBox="0 0 23 29" fill="none" xmlns="http://www.w3.org/2000/svg">
<path d="M1.12507 12.1137C1.84519 11.525 2.86502 11.3366 3.72357 11.6335C3.95365 11.7132 4.16727 11.8249 4.35867 11.9657C4.8468 12.3248 5.93051 13.4027 6.78924 14.4695V6.24612C6.78924 5.54715 7.07664 4.86399 7.57754 4.37158C8.07484 3.88282 8.72814 3.61921 9.41364 3.63202C9.72484 3.63758 10.0231 3.69931 10.2986 3.80719V3.00397C10.2986 2.24326 10.6114 1.49964 11.157 0.963449C11.6976 0.431949 12.4052 0.145489 13.1535 0.159159C14.6454 0.185009 15.8635 1.39774 15.9081 2.88028C16.2314 2.73374 16.5823 2.65149 16.9457 2.6406C17.7036 2.61838 18.4543 2.91169 19.0046 3.44596C19.5436 3.96912 19.8405 4.65976 19.8405 5.38864L19.8424 6.16751C20.0751 6.09103 20.3231 6.04916 20.5809 6.04916C21.8821 6.04916 22.9406 7.10767 22.9406 8.40859L22.9398 20.3625L22.9378 20.4191C22.8291 21.988 22.5008 23.3313 21.9616 24.4118C21.4561 25.4248 20.751 26.2404 19.8657 26.8359C18.1236 28.0083 15.9716 28.1587 14.2914 28.1587C10.992 28.1587 8.02384 26.5183 6.53934 23.8762C6.35884 23.5853 5.88308 22.8371 5.36932 22.0303C4.86902 21.2442 4.40353 20.5198 3.99316 19.8806C3.76758 19.5292 3.56229 19.2096 3.38413 18.9311C2.7204 17.8931 2.0131 16.8867 1.28165 15.9397C1.01035 15.5885 0.926819 15.4932 0.907809 15.4723C0.565369 15.0987 0.349619 14.6413 0.283819 14.1493C0.180209 13.3775 0.486979 12.6354 1.12507 12.1137ZM1.91162 13.9314C1.93277 14.0887 2.00434 14.2378 2.11863 14.3625C2.17823 14.4277 2.28482 14.5516 2.58133 14.9357C3.34247 15.9209 4.07819 16.9674 4.76797 18.0462C4.94571 18.3242 5.15014 18.6424 5.3753 18.993C5.78653 19.6334 6.25265 20.3595 6.75484 21.1482C7.28064 21.9741 7.76724 22.7391 7.94544 23.0268L7.96394 23.0585C9.15534 25.1913 11.5797 26.5162 14.2912 26.5162C15.7381 26.5162 17.5753 26.3976 18.9486 25.4735C20.35 24.5305 21.1182 22.8493 21.2972 20.3337L21.2981 8.40889C21.2981 8.01343 20.9763 7.69171 20.5809 7.69171C20.1832 7.69171 19.8595 8.01343 19.8595 8.40889V12.8823C19.8595 12.8956 19.858 12.9084 19.8576 12.9216C19.8567 12.9362 19.8567 12.9509 19.8553 12.9654C19.854 12.9785 19.8514 12.9911 19.8495 13.0039C19.8473 13.0182 19.8459 13.0327 19.8431 13.047C19.8403 13.0598 19.8365 13.0725 19.8332 13.0851C19.8298 13.0985 19.8271 13.1124 19.8228 13.1256C19.8189 13.1385 19.8138 13.1509 19.8091 13.1632C19.8046 13.1758 19.8006 13.1887 19.7952 13.2011C19.7901 13.2134 19.7839 13.2252 19.7781 13.2372C19.7724 13.2491 19.767 13.2613 19.7608 13.273C19.7546 13.2846 19.7472 13.2957 19.7403 13.307C19.7335 13.3183 19.7271 13.3299 19.7198 13.3408C19.7123 13.3517 19.704 13.3619 19.6961 13.3724C19.6882 13.3831 19.6809 13.394 19.6726 13.404C19.6643 13.414 19.6551 13.4232 19.6465 13.4328C19.6376 13.4427 19.629 13.4531 19.6196 13.4625C19.6104 13.4715 19.6008 13.4796 19.5912 13.4884C19.5814 13.4973 19.5718 13.507 19.5613 13.5155C19.5515 13.5236 19.541 13.5309 19.5308 13.5386C19.5199 13.5467 19.5094 13.5552 19.4983 13.5629C19.4878 13.57 19.4767 13.576 19.466 13.5824C19.4543 13.5896 19.4427 13.5973 19.4306 13.6042C19.4195 13.6101 19.4077 13.6151 19.3964 13.6206C19.384 13.6268 19.3716 13.6332 19.3588 13.6388C19.347 13.6439 19.3344 13.6477 19.3225 13.6522C19.3094 13.6569 19.2966 13.6623 19.2834 13.6665C19.2708 13.6704 19.2575 13.6732 19.2447 13.6766C19.2313 13.68 19.2182 13.6841 19.2048 13.6868C19.1911 13.6896 19.1774 13.6911 19.1638 13.6932C19.1501 13.6952 19.1368 13.6979 19.1232 13.6994C19.1095 13.7007 19.0954 13.7009 19.0815 13.7016C19.0678 13.7022 19.0542 13.7037 19.0403 13.7037H19.0381C19.0097 13.7037 18.9817 13.7022 18.9542 13.6994C18.9422 13.6984 18.9305 13.6958 18.9185 13.6941C18.9033 13.692 18.8878 13.6902 18.8728 13.687C18.857 13.6838 18.8418 13.6794 18.8264 13.6753C18.8158 13.6723 18.8047 13.6702 18.7942 13.667C18.7771 13.6616 18.7604 13.655 18.7438 13.6486C18.7357 13.6454 18.7269 13.6428 18.7188 13.6394C18.7021 13.6324 18.6863 13.624 18.6703 13.6161C18.6626 13.6123 18.6547 13.6091 18.647 13.605C18.632 13.5969 18.6179 13.5875 18.6036 13.5785C18.5955 13.5736 18.5872 13.5691 18.5795 13.5638C18.5663 13.555 18.5536 13.545 18.541 13.5352C18.5327 13.529 18.5242 13.5232 18.5163 13.5166C18.5045 13.5072 18.4938 13.4965 18.4827 13.4862C18.4744 13.4788 18.4658 13.4715 18.4577 13.4638C18.4475 13.4536 18.4383 13.4424 18.4287 13.4318C18.4208 13.423 18.4122 13.4145 18.4048 13.4055C18.3962 13.395 18.3885 13.3839 18.3804 13.373C18.3727 13.3628 18.3646 13.3529 18.3575 13.3423C18.3501 13.3314 18.3439 13.32 18.337 13.3087C18.3302 13.2974 18.3227 13.2863 18.3163 13.2748C18.3101 13.2632 18.305 13.2513 18.2992 13.2395C18.2935 13.2273 18.287 13.2154 18.2817 13.203C18.2766 13.191 18.2727 13.1784 18.2682 13.1662C18.2633 13.1534 18.2582 13.1408 18.2539 13.1276C18.2501 13.115 18.2473 13.1021 18.2441 13.0893C18.2407 13.0759 18.2366 13.0626 18.2336 13.049C18.2311 13.0361 18.2296 13.0227 18.2277 13.0094C18.2253 12.9955 18.2227 12.9817 18.2213 12.9676C18.2198 12.9543 18.2198 12.9406 18.2191 12.9272C18.2183 12.9129 18.2168 12.899 18.2168 12.8847L18.1978 5.39078C18.1978 5.10794 18.0779 4.83579 17.8604 4.62451C17.6267 4.39786 17.3106 4.27268 16.9942 4.2825C16.4016 4.30023 15.9195 4.81571 15.9195 5.43286L15.9101 12.839C15.9101 12.8539 15.9086 12.8684 15.9077 12.883C15.9071 12.896 15.9071 12.9095 15.9058 12.9223C15.9043 12.9377 15.9013 12.9524 15.899 12.9673C15.897 12.9795 15.8958 12.9919 15.8934 13.0039C15.89 13.0201 15.8853 13.0359 15.881 13.0517C15.8782 13.062 15.8761 13.0725 15.8731 13.0825C15.8678 13.0996 15.8609 13.1162 15.8545 13.1329C15.8513 13.1412 15.849 13.1498 15.8456 13.1579C15.8379 13.1756 15.8291 13.1929 15.8203 13.21C15.8169 13.2164 15.8144 13.2233 15.8109 13.2295C15.8013 13.2472 15.7904 13.2641 15.7798 13.2807C15.7763 13.2863 15.7733 13.2918 15.7697 13.2972C15.7584 13.3141 15.746 13.3299 15.7336 13.3457C15.7298 13.3506 15.7264 13.3557 15.7225 13.3604C15.7086 13.3773 15.6937 13.3931 15.6785 13.4087C15.6753 13.4121 15.6727 13.4155 15.6695 13.4187C15.6539 13.4343 15.6373 13.4489 15.6204 13.4632C15.6172 13.4659 15.6144 13.4689 15.6112 13.4717C15.5943 13.4856 15.5768 13.4982 15.5591 13.5106C15.5552 13.5134 15.5518 13.5164 15.548 13.5189C15.53 13.5311 15.5112 13.542 15.4924 13.5527C15.4884 13.555 15.4845 13.5578 15.4803 13.5602C15.4606 13.5706 15.4403 13.58 15.4198 13.5892C15.416 13.5909 15.4123 13.593 15.4085 13.5948C15.3875 13.6035 15.366 13.611 15.3442 13.6183C15.3403 13.6193 15.3369 13.621 15.3331 13.6223C15.3115 13.6289 15.2895 13.6343 15.2675 13.6392C15.263 13.64 15.2587 13.6415 15.2542 13.6426C15.2008 13.6535 15.1455 13.6593 15.0889 13.6593H15.0876C15.0733 13.6593 15.0592 13.6578 15.0451 13.6571C15.0314 13.6563 15.0178 13.6563 15.0043 13.655C14.9894 13.6533 14.975 13.6505 14.9603 13.6482C14.9479 13.6462 14.9351 13.645 14.9227 13.6424C14.908 13.6394 14.8937 13.6351 14.8791 13.6313C14.8674 13.6281 14.8556 13.6257 14.8441 13.6221C14.8294 13.6176 14.8153 13.6118 14.8009 13.6063C14.7903 13.6022 14.7791 13.599 14.7687 13.5945C14.7539 13.5881 14.7396 13.5807 14.7253 13.5736C14.7159 13.5689 14.7061 13.5648 14.6969 13.5599C14.6828 13.5522 14.6693 13.5433 14.6557 13.5349C14.6469 13.5294 14.6377 13.5245 14.6292 13.5187C14.6162 13.5099 14.604 13.5001 14.5916 13.4905C14.583 13.4841 14.5743 13.4781 14.566 13.4713C14.5542 13.4617 14.5431 13.4508 14.5318 13.4403C14.5239 13.433 14.5155 13.426 14.5076 13.4183C14.4972 13.4076 14.4873 13.3961 14.4773 13.385C14.4698 13.3766 14.4619 13.3687 14.4547 13.36C14.4457 13.3489 14.4376 13.3371 14.4292 13.3258C14.422 13.316 14.4143 13.3066 14.4074 13.2968C14.3998 13.2854 14.3933 13.2735 14.3863 13.2617C14.3797 13.2508 14.3724 13.2401 14.3664 13.229C14.36 13.2173 14.3549 13.2049 14.3491 13.1929C14.3434 13.181 14.3369 13.1694 14.3318 13.157C14.3269 13.1453 14.3229 13.1329 14.3186 13.1207C14.3137 13.1077 14.3083 13.0949 14.3043 13.0816C14.3004 13.0688 14.2976 13.0558 14.2942 13.0428C14.2908 13.0295 14.2867 13.0165 14.2842 13.003C14.2814 12.9896 14.2799 12.9757 14.2778 12.9622C14.2759 12.9485 14.2731 12.9351 14.2718 12.9214C14.2703 12.9075 14.2703 12.8934 14.2697 12.8793C14.2688 12.8654 14.2675 12.852 14.2675 12.8379V2.96467C14.2675 2.33405 13.7548 1.81238 13.1249 1.80149C12.8209 1.79722 12.5321 1.91471 12.308 2.13495C12.0747 2.36417 11.941 2.68097 11.941 3.00397V12.8832C11.941 12.8981 11.9395 12.9127 11.9386 12.9274C11.938 12.9404 11.938 12.9537 11.9367 12.9667C11.9352 12.9812 11.9322 12.9953 11.9301 13.0096C11.9279 13.0227 11.9266 13.0357 11.9241 13.0483C11.9211 13.0626 11.9168 13.0765 11.9132 13.0906C11.91 13.1028 11.9076 13.115 11.9038 13.1269C11.8991 13.1421 11.8931 13.1568 11.8876 13.1716C11.8837 13.1818 11.8805 13.1923 11.8762 13.2023C11.8696 13.2177 11.8619 13.2325 11.8544 13.2474C11.8502 13.2562 11.8463 13.2654 11.8416 13.2741C11.8335 13.2893 11.8241 13.3036 11.8149 13.3181C11.81 13.3258 11.8057 13.3341 11.8004 13.3418C11.7906 13.3564 11.7797 13.3702 11.7688 13.3841C11.7634 13.391 11.7587 13.3982 11.7532 13.4048C11.7412 13.4196 11.728 13.4333 11.7149 13.4471C11.7098 13.4523 11.7053 13.458 11.7002 13.4632C11.6867 13.4768 11.6722 13.4892 11.6577 13.5018C11.6524 13.5065 11.6474 13.5117 11.6419 13.5161C11.6257 13.5296 11.6086 13.5418 11.5915 13.554C11.5872 13.5569 11.5831 13.5604 11.5787 13.5636C11.5603 13.576 11.5411 13.5873 11.5216 13.5982C11.518 13.6001 11.5148 13.6027 11.5111 13.6046C11.4898 13.6161 11.468 13.6264 11.4456 13.6362C11.4434 13.6371 11.4415 13.6383 11.4394 13.6392C11.4161 13.649 11.3922 13.6576 11.3678 13.6653L11.3637 13.6667C11.3127 13.6828 11.2595 13.6937 11.2046 13.6994H11.2035C11.176 13.7022 11.148 13.7037 11.1196 13.7037C11.1051 13.7037 11.0899 13.7022 11.0754 13.7016C11.0619 13.7007 11.0484 13.7007 11.0352 13.6994C11.02 13.6979 11.0053 13.6949 10.9903 13.6926C10.9782 13.6907 10.9658 13.6894 10.9536 13.6868C10.9376 13.6836 10.9222 13.6789 10.9066 13.6749C10.8961 13.6721 10.8852 13.67 10.875 13.6667C10.8583 13.6614 10.8423 13.655 10.8261 13.6488C10.8173 13.6454 10.8083 13.6426 10.7996 13.639C10.7831 13.6319 10.7673 13.6238 10.7513 13.6157C10.7436 13.6118 10.7355 13.6086 10.7278 13.6044C10.7122 13.5958 10.6972 13.5862 10.6821 13.5766C10.6748 13.5721 10.6673 13.5681 10.6601 13.5631C10.6447 13.5529 10.6304 13.5414 10.6159 13.53C10.6097 13.5253 10.603 13.5208 10.5968 13.5159C10.5825 13.504 10.5691 13.4909 10.5554 13.4781C10.5498 13.473 10.5439 13.4683 10.5387 13.463C10.5255 13.4497 10.5131 13.4356 10.5009 13.4213C10.4958 13.4157 10.4905 13.4104 10.4855 13.4046C10.4738 13.3903 10.4631 13.3752 10.4524 13.3602C10.4479 13.3538 10.4428 13.3478 10.4383 13.3414C10.4283 13.3264 10.4193 13.3109 10.4104 13.2953C10.4061 13.288 10.4012 13.2812 10.3971 13.2737C10.3886 13.2579 10.3813 13.2414 10.3738 13.225C10.3702 13.2173 10.3659 13.2098 10.3627 13.2019C10.3559 13.1859 10.3503 13.1692 10.3446 13.1528C10.3416 13.144 10.3377 13.1355 10.3349 13.1263C10.3302 13.1107 10.3266 13.0942 10.3226 13.0782C10.3202 13.068 10.317 13.0579 10.3149 13.0477C10.3117 13.0319 10.3097 13.0154 10.3074 12.9994C10.3059 12.9883 10.3035 12.9774 10.3025 12.9661C10.3008 12.9511 10.3008 12.9357 10.3001 12.9203C10.2995 12.9077 10.2982 12.8954 10.2982 12.8823V6.10364C10.2448 5.64542 9.85584 5.28247 9.38474 5.27435C9.14274 5.2703 8.90904 5.36557 8.72854 5.54309C8.53974 5.72852 8.43144 5.98486 8.43144 6.24612V15.9401L8.43094 15.9769C8.42644 16.509 8.07704 16.9587 7.56154 17.0958C7.04944 17.2319 6.52634 17.0168 6.25714 16.5558L6.25201 16.5466C5.60815 15.4217 3.88721 13.6584 3.38477 13.2889C3.32666 13.2459 3.2598 13.2115 3.1861 13.1859C2.85883 13.0729 2.44846 13.153 2.16434 13.3854C2.03061 13.495 1.87787 13.6787 1.91162 13.9314Z" fill="white"/>
</svg>
