<svg width="29" height="29" viewBox="0 0 29 29" fill="none" xmlns="http://www.w3.org/2000/svg">
<path d="M27.1053 7.87856L28.264 6.71985L21.7028 0.158691L20.5441 1.3174L23.2453 4.01865L22.0094 5.2546L20.1554 3.40065L18.0806 5.47544L17.2333 4.62819L16.0746 5.7869L16.7192 6.4315L4.93586 18.2149L5.64202 21.6221L0.264038 27L1.42275 28.1587L6.80068 22.7808L10.2078 23.4869L21.9912 11.7035L22.6358 12.3481L23.7945 11.1894L22.9473 10.3421L25.022 8.26729L23.1681 6.41336L24.404 5.17742L27.1053 7.87856ZM9.67444 21.7028L7.22712 21.1956L6.71989 18.7483L8.28824 17.1799L9.28674 18.1783L10.4454 17.0196L9.44694 16.0212L11.1776 14.2905L12.794 15.9069L13.9527 14.7482L12.3363 13.1318L14.067 11.4011L15.0654 12.3996L16.2241 11.2409L15.2257 10.2424L17.8779 7.59021L20.8324 10.5448L9.67444 21.7028ZM19.2394 6.63415L20.1554 5.71807L22.7046 8.26729L21.7885 9.18329L19.2394 6.63415Z" fill="white"/>
</svg>
