<svg width="23" height="26" viewBox="0 0 23 26" fill="none" xmlns="http://www.w3.org/2000/svg">
<path d="M14.4976 0.170898H11.4611V2.0687H13.5486V5.64288C13.5486 8.78223 10.9945 11.3363 7.85524 11.3363C4.71593 11.3363 2.16184 8.78223 2.16184 5.64294V2.0687H4.18618V0.170898H1.21294C0.688828 0.170898 0.264038 0.595689 0.264038 1.1198V5.64294C0.264038 9.82893 3.66933 13.2341 7.85524 13.2341C12.0412 13.2341 15.4465 9.82893 15.4465 5.64294V1.1198C15.4465 0.595689 15.0217 0.170898 14.4976 0.170898Z" fill="white"/>
<path d="M18.1975 14.0249V18.5164C18.1975 21.1325 16.0691 23.2609 13.4529 23.2609C10.8368 23.2609 8.70844 21.1325 8.70844 18.5164V12.3168H6.81064V18.5164C6.81064 22.1788 9.79014 25.1587 13.4529 25.1587C17.1154 25.1587 20.0953 22.1788 20.0953 18.5164V14.0249H18.1975Z" fill="white"/>
<path d="M19.1471 7.88855C17.2107 7.88855 15.6358 9.46345 15.6358 11.3995C15.6358 13.3353 17.2107 14.9104 19.1468 14.9104C21.0829 14.9104 22.6578 13.3353 22.6581 11.3995C22.658 9.46345 21.0829 7.88855 19.1471 7.88855ZM19.1468 13.0126C18.2571 13.0126 17.5333 12.289 17.5333 11.3995C17.5333 10.5101 18.257 9.78645 19.1468 9.78645C20.0362 9.78645 20.7599 10.5101 20.7599 11.3995C20.7599 12.289 20.0362 13.0126 19.1468 13.0126Z" fill="white"/>
</svg>
