<svg width="23" height="27" viewBox="0 0 23 27" fill="none" xmlns="http://www.w3.org/2000/svg">
<path fill-rule="evenodd" clip-rule="evenodd" d="M17.758 5.47216L21.9674 5.48284C22.3134 5.48376 22.6137 5.21155 22.6381 4.87527L22.939 0.780004C22.9637 0.443714 22.7034 0.170294 22.3577 0.169374L18.1483 0.158694C17.8025 0.157784 17.5022 0.429984 17.4775 0.766274L17.1766 4.86153C17.1519 5.19782 17.4122 5.47125 17.758 5.47216ZM17.2191 6.85089L21.5755 6.85058C21.9036 6.85028 22.152 7.15422 22.0934 7.48469L22.0842 7.53749C22.083 7.54449 22.0815 7.55319 22.0797 7.56359C21.8993 8.59529 18.8635 25.9615 11.4237 26.7404C11.3285 26.7505 10.9898 26.7523 10.8952 26.7428C3.48159 25.9978 0.503497 8.79379 0.293867 7.58279C0.290557 7.56369 0.287937 7.54849 0.285997 7.53749L0.272267 7.45969C0.216117 7.14232 0.454447 6.85058 0.769677 6.85058L5.16523 6.85089C5.39164 6.85089 5.59064 7.005 5.65194 7.22809L5.67244 7.30249C5.67574 7.31409 5.67824 7.32539 5.68064 7.33729C6.59004 11.9294 8.81194 20.5752 11.1045 21.4443C11.1159 21.4485 11.1266 21.4539 11.1373 21.4593C11.1416 21.4614 11.146 21.4636 11.1503 21.4657L11.1554 21.463C11.1723 21.4541 11.1893 21.4452 11.2074 21.4382C13.4976 20.542 15.7882 11.901 16.6933 7.32019L16.7039 7.27419L16.7131 7.24149C16.7775 7.01018 16.9841 6.85089 17.2191 6.85089Z" fill="white"/>
</svg>
