<svg width="28" height="27" viewBox="0 0 28 27" fill="none" xmlns="http://www.w3.org/2000/svg">
<path d="M12.8426 1.78253C11.6612 0.753151 10.1426 0.158691 8.55774 0.158691C4.91176 0.158691 1.94554 3.20395 1.94554 6.94709V10.0732C0.916308 10.9953 0.264038 12.35 0.264038 13.8592C0.264038 16.6301 2.45976 18.8845 5.15882 18.8845H14.1542L17.6577 24.6212C18.2456 25.5838 19.2573 26.1587 20.3641 26.1587C22.1256 26.1587 23.5585 24.6875 23.5585 22.879V18.4267C26.0082 17.4476 27.7497 15.0018 27.7497 12.1446V9.58249C27.7497 5.98628 24.9917 3.03859 21.5332 2.85211L20.849 2.40725C18.4484 0.846781 15.428 0.622621 12.8426 1.78253ZM19.7596 4.49801L18.3276 8.16719H15.7933C15.1573 8.16719 14.6417 8.69639 14.6417 9.34949C14.6417 10.0026 15.1573 10.5318 15.7933 10.5318H19.1068C19.5775 10.5318 20.0008 10.2378 20.1758 9.78919L21.9369 5.27691C23.9292 5.64278 25.4465 7.43359 25.4465 9.58249V12.1446C25.4465 12.8846 25.2659 13.5818 24.9487 14.1936L23.8558 13.1387V11.317C23.8558 10.6639 23.3401 10.1347 22.7041 10.1347C22.0682 10.1347 21.5525 10.6639 21.5525 11.317V12.4675H20.1955C19.5595 12.4675 19.0439 12.9966 19.0439 13.6497C19.0439 14.3028 19.5595 14.832 20.1955 14.832H22.2478L23.3596 15.9052C22.7224 16.2952 21.9788 16.5199 21.1846 16.5199C20.5487 16.5199 20.033 17.0491 20.033 17.7022C20.033 18.3553 20.5487 18.8845 21.1846 18.8845C21.2083 18.8845 21.2316 18.8829 21.2551 18.8826V22.879C21.2551 23.3836 20.8553 23.7941 20.3639 23.7941C20.0552 23.7941 19.7729 23.6336 19.6089 23.365L16.8442 18.8381C17.326 18.6969 17.6792 18.2422 17.6792 17.7022C17.6792 17.0491 17.1636 16.5199 16.5276 16.5199H9.39794L11.6471 14.1031H13.4267C14.0627 14.1031 14.5783 13.5739 14.5783 12.9208C14.5783 12.2677 14.0627 11.7385 13.4267 11.7385H11.1546C10.8402 11.7385 10.5392 11.8706 10.322 12.1041L6.21277 16.5199H5.15882C3.72975 16.5199 2.56725 15.3264 2.56725 13.8592C2.56725 12.3921 3.72991 11.1985 5.15882 11.1985H7.32045C7.68421 11.1985 8.02646 11.0221 8.24373 10.7227L9.45154 9.05909C9.83174 8.53559 9.72634 7.79469 9.21644 7.40459C8.70624 7.01424 7.98485 7.12254 7.60483 7.64589L6.74235 8.83369H5.15867C4.84758 8.83369 4.54371 8.86489 4.24859 8.92219V6.94693C4.24859 4.50747 6.18159 2.52311 8.55754 2.52311C10.0677 2.52311 11.4861 3.35056 12.2593 4.68261L12.9699 5.90699C13.2954 6.46787 14.0023 6.65183 14.5486 6.31732C15.095 5.98313 15.274 5.25736 14.9485 4.69648L14.3801 3.71738C16.1208 3.15146 18.0491 3.38571 19.6166 4.405L19.7596 4.49801Z" fill="white"/>
</svg>
