<svg width="27" height="25" viewBox="0 0 27 25" fill="none" xmlns="http://www.w3.org/2000/svg">
<path d="M22.2643 5.98828H5.26422V18.9882H22.2643V5.98828Z" fill="white"/>
<path d="M11.7695 15.2368L15.6729 12.9886L11.7695 10.7405V15.2368Z" fill="#FF0000"/>
<path d="M13.264 0.988525C6.63764 0.988525 1.26404 6.36213 1.26404 12.9885C1.26404 19.6149 6.63764 24.9885 13.264 24.9885C19.8904 24.9885 25.264 19.6149 25.264 12.9885C25.264 6.36213 19.8904 0.988525 13.264 0.988525ZM20.7623 13.0008C20.7623 13.0008 20.7623 15.4344 20.4535 16.608C20.2804 17.2503 19.7739 17.7568 19.1317 17.9297C17.9582 18.2385 13.264 18.2385 13.264 18.2385C13.264 18.2385 8.58221 18.2385 7.39643 17.9174C6.75409 17.7445 6.24762 17.2378 6.07459 16.5955C5.76569 15.4344 5.76569 12.9885 5.76569 12.9885C5.76569 12.9885 5.76569 10.555 6.07459 9.38153C6.24744 8.7392 6.76636 8.22028 7.39643 8.04742C8.56994 7.73853 13.264 7.73853 13.264 7.73853C13.264 7.73853 17.9582 7.73853 19.1317 8.05969C19.7739 8.23255 20.2804 8.7392 20.4535 9.38153C20.7747 10.555 20.7623 13.0008 20.7623 13.0008Z" fill="#FF0000"/>
</svg>
